%TF.GenerationSoftware,KiCad,Pcbnew,10.0.6*%
%TF.CreationDate,2026-09-10T23:48:28+05:30*%
%TF.ProjectId,STM32_schm,53544d33-325f-4736-9368-6d2e6b696361,rev?*%
%TF.SameCoordinates,Original*%
%TF.FileFunction,Copper,L2,Bot*%
%TF.FilePolarity,Positive*%
%FSLAX46Y46*%
G04 Gerber Fmt 4.6, Leading zero omitted, Abs format (unit mm)*
G04 Created by KiCad (PCBNEW 10.0.6) date 2026-09-10 23:48:29*
%MOMM*%
%LPD*%
G01*
G04 APERTURE LIST*
%TA.AperFunction,ComponentPad*%
%ADD10O,1.800000X1.150000*%
%TD*%
%TA.AperFunction,ComponentPad*%
%ADD11O,2.000000X1.450000*%
%TD*%
%TA.AperFunction,ComponentPad*%
%ADD12C,1.700000*%
%TD*%
%TA.AperFunction,ComponentPad*%
%ADD13R,1.700000X1.700000*%
%TD*%
%TA.AperFunction,ViaPad*%
%ADD14C,0.700000*%
%TD*%
%TA.AperFunction,Conductor*%
%ADD15C,0.500000*%
%TD*%
G04 APERTURE END LIST*
D10*
%TO.P,J1,SH,SHIELD_SH*%
%TO.N,unconnected-(J1-SHIELD-PadSH)*%
X192195000Y-104880000D03*
D11*
%TO.N,unconnected-(J1-SHIELD-PadSH)_2*%
X188395000Y-104730000D03*
%TO.N,unconnected-(J1-SHIELD-PadSH)_1*%
X188395000Y-97280000D03*
D10*
%TO.N,unconnected-(J1-SHIELD-PadSH)_3*%
X192195000Y-97130000D03*
%TD*%
D12*
%TO.P,J4,4,Pin_4_4*%
%TO.N,GND*%
X175620000Y-119500000D03*
%TO.P,J4,3,Pin_3_3*%
%TO.N,/I2C2_SDA*%
X173080000Y-119500000D03*
%TO.P,J4,2,Pin_2_2*%
%TO.N,/I2C2_SCL*%
X170540000Y-119500000D03*
D13*
%TO.P,J4,1,Pin_1_1*%
%TO.N,+3V3*%
X168000000Y-119500000D03*
%TD*%
%TO.P,J3,1,Pin_1_1*%
%TO.N,+3V3*%
X173310000Y-91000000D03*
D12*
%TO.P,J3,2,Pin_2_2*%
%TO.N,/USART1_TX*%
X170770000Y-91000000D03*
%TO.P,J3,3,Pin_3_3*%
%TO.N,/USART1_RX*%
X168230000Y-91000000D03*
%TO.P,J3,4,Pin_4_4*%
%TO.N,GND*%
X165690000Y-91000000D03*
%TD*%
D13*
%TO.P,J2,1,Pin_1_1*%
%TO.N,+3V3*%
X186310000Y-91000000D03*
D12*
%TO.P,J2,2,Pin_2_2*%
%TO.N,/SWDIO*%
X183770000Y-91000000D03*
%TO.P,J2,3,Pin_3_3*%
%TO.N,/SWCLK*%
X181230000Y-91000000D03*
%TO.P,J2,4,Pin_4_4*%
%TO.N,GND*%
X178690000Y-91000000D03*
%TD*%
D14*
%TO.N,GND*%
X163500000Y-111500000D03*
X169500000Y-111500000D03*
X169000000Y-96000000D03*
X164120050Y-105179999D03*
X164500000Y-103500000D03*
X175500000Y-117500000D03*
X186500000Y-99500000D03*
X176500000Y-91000000D03*
X163000000Y-91000000D03*
X161500000Y-97000000D03*
X178500000Y-103000000D03*
%TO.N,+3V3*%
X171500000Y-115000000D03*
X170000000Y-115000000D03*
X172395025Y-112604975D03*
X174025552Y-112255603D03*
%TO.N,GND*%
X189500000Y-110000000D03*
X188500000Y-111500000D03*
X186500000Y-112500000D03*
X185500000Y-108000000D03*
X185500000Y-107000000D03*
X162500000Y-109000000D03*
X168500000Y-106000000D03*
X173500000Y-108000000D03*
X165000000Y-100500000D03*
%TD*%
%TO.N,+3V3*%
D15*
X171500000Y-115000000D02*
X170000000Y-115000000D01*
X172744397Y-112255603D02*
X172395025Y-112604975D01*
X174025552Y-112255603D02*
X172744397Y-112255603D01*
%TO.N,GND*%
X165000000Y-100500000D02*
X165000000Y-101000000D01*
%TD*%
%TA.AperFunction,Conductor*%
%TO.N,GND*%
G36*
X191003736Y-89000726D02*
G01*
X191293796Y-89018271D01*
X191308659Y-89020076D01*
X191590797Y-89071780D01*
X191605334Y-89075363D01*
X191879182Y-89160698D01*
X191893163Y-89166000D01*
X192154734Y-89283724D01*
X192167987Y-89290680D01*
X192413458Y-89439071D01*
X192425776Y-89447573D01*
X192651573Y-89624474D01*
X192662781Y-89634404D01*
X192865595Y-89837218D01*
X192875525Y-89848426D01*
X192876367Y-89849501D01*
X192980230Y-89982072D01*
X193052422Y-90074217D01*
X193060928Y-90086541D01*
X193209319Y-90332012D01*
X193216277Y-90345269D01*
X193330878Y-90599901D01*
X193333994Y-90606823D01*
X193339304Y-90620825D01*
X193424635Y-90894664D01*
X193428219Y-90909202D01*
X193479923Y-91191340D01*
X193481728Y-91206205D01*
X193499274Y-91496263D01*
X193499500Y-91503750D01*
X193499500Y-96611292D01*
X193479815Y-96678331D01*
X193427011Y-96724086D01*
X193357853Y-96734030D01*
X193294297Y-96705005D01*
X193272398Y-96680183D01*
X193200045Y-96571901D01*
X193200042Y-96571897D01*
X193078102Y-96449957D01*
X193078098Y-96449954D01*
X192934711Y-96354145D01*
X192934698Y-96354138D01*
X192775378Y-96288146D01*
X192775366Y-96288143D01*
X192606232Y-96254500D01*
X192606229Y-96254500D01*
X191783771Y-96254500D01*
X191783768Y-96254500D01*
X191614633Y-96288143D01*
X191614621Y-96288146D01*
X191455301Y-96354138D01*
X191455288Y-96354145D01*
X191311901Y-96449954D01*
X191311897Y-96449957D01*
X191189957Y-96571897D01*
X191189954Y-96571901D01*
X191094145Y-96715288D01*
X191094138Y-96715301D01*
X191028146Y-96874621D01*
X191028143Y-96874633D01*
X190994500Y-97043766D01*
X190994500Y-97216233D01*
X191028143Y-97385366D01*
X191028146Y-97385378D01*
X191094138Y-97544698D01*
X191094145Y-97544711D01*
X191189954Y-97688098D01*
X191189957Y-97688102D01*
X191311897Y-97810042D01*
X191311901Y-97810045D01*
X191455288Y-97905854D01*
X191455301Y-97905861D01*
X191588142Y-97960885D01*
X191614626Y-97971855D01*
X191783766Y-98005499D01*
X191783769Y-98005500D01*
X191783771Y-98005500D01*
X192606231Y-98005500D01*
X192606232Y-98005499D01*
X192775374Y-97971855D01*
X192934705Y-97905858D01*
X193078099Y-97810045D01*
X193200045Y-97688099D01*
X193272398Y-97579816D01*
X193326010Y-97535011D01*
X193395335Y-97526304D01*
X193458363Y-97556459D01*
X193495082Y-97615902D01*
X193499500Y-97648707D01*
X193499500Y-104361292D01*
X193479815Y-104428331D01*
X193427011Y-104474086D01*
X193357853Y-104484030D01*
X193294297Y-104455005D01*
X193272398Y-104430183D01*
X193200045Y-104321901D01*
X193200042Y-104321897D01*
X193078102Y-104199957D01*
X193078098Y-104199954D01*
X192934711Y-104104145D01*
X192934698Y-104104138D01*
X192775378Y-104038146D01*
X192775366Y-104038143D01*
X192606232Y-104004500D01*
X192606229Y-104004500D01*
X191783771Y-104004500D01*
X191783768Y-104004500D01*
X191614633Y-104038143D01*
X191614621Y-104038146D01*
X191455301Y-104104138D01*
X191455288Y-104104145D01*
X191311901Y-104199954D01*
X191311897Y-104199957D01*
X191189957Y-104321897D01*
X191189954Y-104321901D01*
X191094145Y-104465288D01*
X191094138Y-104465301D01*
X191028146Y-104624621D01*
X191028143Y-104624633D01*
X190994500Y-104793766D01*
X190994500Y-104966233D01*
X191028143Y-105135366D01*
X191028146Y-105135378D01*
X191094138Y-105294698D01*
X191094145Y-105294711D01*
X191189954Y-105438098D01*
X191189957Y-105438102D01*
X191311897Y-105560042D01*
X191311901Y-105560045D01*
X191455288Y-105655854D01*
X191455301Y-105655861D01*
X191600708Y-105716090D01*
X191614626Y-105721855D01*
X191783766Y-105755499D01*
X191783769Y-105755500D01*
X191783771Y-105755500D01*
X192606231Y-105755500D01*
X192606232Y-105755499D01*
X192775374Y-105721855D01*
X192934705Y-105655858D01*
X193078099Y-105560045D01*
X193200045Y-105438099D01*
X193272398Y-105329816D01*
X193326010Y-105285011D01*
X193395335Y-105276304D01*
X193458363Y-105306459D01*
X193495082Y-105365902D01*
X193499500Y-105398707D01*
X193499500Y-118996249D01*
X193499274Y-119003736D01*
X193481728Y-119293794D01*
X193479923Y-119308659D01*
X193428219Y-119590797D01*
X193424635Y-119605335D01*
X193339304Y-119879174D01*
X193333994Y-119893176D01*
X193216277Y-120154730D01*
X193209319Y-120167987D01*
X193060928Y-120413458D01*
X193052422Y-120425782D01*
X192875525Y-120651573D01*
X192865595Y-120662781D01*
X192662781Y-120865595D01*
X192651573Y-120875525D01*
X192425782Y-121052422D01*
X192413458Y-121060928D01*
X192167987Y-121209319D01*
X192154730Y-121216277D01*
X191893176Y-121333994D01*
X191879174Y-121339304D01*
X191605335Y-121424635D01*
X191590797Y-121428219D01*
X191308659Y-121479923D01*
X191293794Y-121481728D01*
X191003736Y-121499274D01*
X190996249Y-121499500D01*
X159003751Y-121499500D01*
X158996264Y-121499274D01*
X158706205Y-121481728D01*
X158691340Y-121479923D01*
X158409202Y-121428219D01*
X158394664Y-121424635D01*
X158120825Y-121339304D01*
X158106827Y-121333995D01*
X157954096Y-121265256D01*
X157845269Y-121216277D01*
X157832012Y-121209319D01*
X157586541Y-121060928D01*
X157574217Y-121052422D01*
X157348426Y-120875525D01*
X157337218Y-120865595D01*
X157134404Y-120662781D01*
X157124474Y-120651573D01*
X157096032Y-120615270D01*
X156947573Y-120425776D01*
X156939071Y-120413458D01*
X156790680Y-120167987D01*
X156783722Y-120154730D01*
X156764620Y-120112287D01*
X156666000Y-119893163D01*
X156660698Y-119879182D01*
X156575363Y-119605334D01*
X156571780Y-119590797D01*
X156540980Y-119422728D01*
X156520075Y-119308657D01*
X156518271Y-119293794D01*
X156500726Y-119003736D01*
X156500500Y-118996249D01*
X156500500Y-118897648D01*
X157699500Y-118897648D01*
X157699500Y-119102351D01*
X157731522Y-119304534D01*
X157794781Y-119499223D01*
X157848849Y-119605335D01*
X157865354Y-119637729D01*
X157887715Y-119681613D01*
X158008028Y-119847213D01*
X158152786Y-119991971D01*
X158305599Y-120102994D01*
X158318390Y-120112287D01*
X158401689Y-120154730D01*
X158500776Y-120205218D01*
X158500778Y-120205218D01*
X158500781Y-120205220D01*
X158605137Y-120239127D01*
X158695465Y-120268477D01*
X158796557Y-120284488D01*
X158897648Y-120300500D01*
X158897649Y-120300500D01*
X159102351Y-120300500D01*
X159102352Y-120300500D01*
X159304534Y-120268477D01*
X159499219Y-120205220D01*
X159681610Y-120112287D01*
X159774590Y-120044732D01*
X159847213Y-119991971D01*
X159847215Y-119991968D01*
X159847219Y-119991966D01*
X159991966Y-119847219D01*
X159991968Y-119847215D01*
X159991971Y-119847213D01*
X160048498Y-119769409D01*
X160112287Y-119681610D01*
X160205220Y-119499219D01*
X160268477Y-119304534D01*
X160300500Y-119102352D01*
X160300500Y-118897648D01*
X160268477Y-118695466D01*
X160268476Y-118695462D01*
X160268476Y-118695461D01*
X160250414Y-118639872D01*
X160239126Y-118605131D01*
X166849500Y-118605131D01*
X166849500Y-120394856D01*
X166849502Y-120394882D01*
X166852413Y-120419987D01*
X166852415Y-120419991D01*
X166897793Y-120522764D01*
X166897794Y-120522765D01*
X166977235Y-120602206D01*
X167080009Y-120647585D01*
X167105135Y-120650500D01*
X168894864Y-120650499D01*
X168894879Y-120650497D01*
X168894882Y-120650497D01*
X168919987Y-120647586D01*
X168919988Y-120647585D01*
X168919991Y-120647585D01*
X169022765Y-120602206D01*
X169102206Y-120522765D01*
X169147585Y-120419991D01*
X169150500Y-120394865D01*
X169150499Y-119657125D01*
X169170183Y-119590089D01*
X169222987Y-119544334D01*
X169292146Y-119534390D01*
X169355702Y-119563415D01*
X169393476Y-119622193D01*
X169396972Y-119637729D01*
X169417829Y-119769410D01*
X169473787Y-119941636D01*
X169473788Y-119941639D01*
X169556006Y-120102997D01*
X169662441Y-120249494D01*
X169662445Y-120249499D01*
X169790500Y-120377554D01*
X169790505Y-120377558D01*
X169914565Y-120467692D01*
X169937006Y-120483996D01*
X170013094Y-120522765D01*
X170098360Y-120566211D01*
X170098363Y-120566212D01*
X170184476Y-120594191D01*
X170270591Y-120622171D01*
X170353429Y-120635291D01*
X170449449Y-120650500D01*
X170449454Y-120650500D01*
X170630551Y-120650500D01*
X170717259Y-120636765D01*
X170809409Y-120622171D01*
X170981639Y-120566211D01*
X171142994Y-120483996D01*
X171289501Y-120377553D01*
X171417553Y-120249501D01*
X171523996Y-120102994D01*
X171606211Y-119941639D01*
X171662171Y-119769409D01*
X171676422Y-119679425D01*
X171687527Y-119609321D01*
X171717456Y-119546186D01*
X171776768Y-119509255D01*
X171846630Y-119510253D01*
X171904863Y-119548863D01*
X171932473Y-119609321D01*
X171957829Y-119769410D01*
X172013787Y-119941636D01*
X172013788Y-119941639D01*
X172096006Y-120102997D01*
X172202441Y-120249494D01*
X172202445Y-120249499D01*
X172330500Y-120377554D01*
X172330505Y-120377558D01*
X172454565Y-120467692D01*
X172477006Y-120483996D01*
X172553094Y-120522765D01*
X172638360Y-120566211D01*
X172638363Y-120566212D01*
X172724476Y-120594191D01*
X172810591Y-120622171D01*
X172893429Y-120635291D01*
X172989449Y-120650500D01*
X172989454Y-120650500D01*
X173170551Y-120650500D01*
X173257259Y-120636765D01*
X173349409Y-120622171D01*
X173521639Y-120566211D01*
X173682994Y-120483996D01*
X173805669Y-120394868D01*
X173829495Y-120377558D01*
X173829497Y-120377555D01*
X173829501Y-120377553D01*
X173957553Y-120249501D01*
X174063996Y-120102994D01*
X174131090Y-119971314D01*
X174179065Y-119920519D01*
X174246886Y-119903724D01*
X174313021Y-119926262D01*
X174356472Y-119980977D01*
X174359506Y-119989292D01*
X174368904Y-120018217D01*
X174465375Y-120207550D01*
X174504728Y-120261716D01*
X175137037Y-119629408D01*
X175154075Y-119692993D01*
X175219901Y-119807007D01*
X175312993Y-119900099D01*
X175427007Y-119965925D01*
X175490590Y-119982962D01*
X174858282Y-120615269D01*
X174858282Y-120615270D01*
X174912449Y-120654624D01*
X175101782Y-120751095D01*
X175303870Y-120816757D01*
X175513754Y-120850000D01*
X175726246Y-120850000D01*
X175936127Y-120816757D01*
X175936130Y-120816757D01*
X176138217Y-120751095D01*
X176327554Y-120654622D01*
X176381716Y-120615270D01*
X176381717Y-120615270D01*
X175749408Y-119982962D01*
X175812993Y-119965925D01*
X175927007Y-119900099D01*
X176020099Y-119807007D01*
X176085925Y-119692993D01*
X176102962Y-119629408D01*
X176735270Y-120261717D01*
X176735270Y-120261716D01*
X176774622Y-120207554D01*
X176871095Y-120018217D01*
X176936757Y-119816130D01*
X176936757Y-119816127D01*
X176970000Y-119606246D01*
X176970000Y-119393753D01*
X176936757Y-119183872D01*
X176936757Y-119183869D01*
X176871095Y-118981782D01*
X176854428Y-118949071D01*
X176828226Y-118897648D01*
X189699500Y-118897648D01*
X189699500Y-119102351D01*
X189731522Y-119304534D01*
X189794781Y-119499223D01*
X189848849Y-119605335D01*
X189865354Y-119637729D01*
X189887715Y-119681613D01*
X190008028Y-119847213D01*
X190152786Y-119991971D01*
X190305599Y-120102994D01*
X190318390Y-120112287D01*
X190401689Y-120154730D01*
X190500776Y-120205218D01*
X190500778Y-120205218D01*
X190500781Y-120205220D01*
X190605137Y-120239127D01*
X190695465Y-120268477D01*
X190796557Y-120284488D01*
X190897648Y-120300500D01*
X190897649Y-120300500D01*
X191102351Y-120300500D01*
X191102352Y-120300500D01*
X191304534Y-120268477D01*
X191499219Y-120205220D01*
X191681610Y-120112287D01*
X191774590Y-120044732D01*
X191847213Y-119991971D01*
X191847215Y-119991968D01*
X191847219Y-119991966D01*
X191991966Y-119847219D01*
X191991968Y-119847215D01*
X191991971Y-119847213D01*
X192048498Y-119769409D01*
X192112287Y-119681610D01*
X192205220Y-119499219D01*
X192268477Y-119304534D01*
X192300500Y-119102352D01*
X192300500Y-118897648D01*
X192283836Y-118792439D01*
X192268477Y-118695465D01*
X192210167Y-118516006D01*
X192205220Y-118500781D01*
X192205218Y-118500778D01*
X192205218Y-118500776D01*
X192146087Y-118384727D01*
X192112287Y-118318390D01*
X192061803Y-118248904D01*
X191991971Y-118152786D01*
X191847213Y-118008028D01*
X191681613Y-117887715D01*
X191681612Y-117887714D01*
X191681610Y-117887713D01*
X191624653Y-117858691D01*
X191499223Y-117794781D01*
X191304534Y-117731522D01*
X191129995Y-117703878D01*
X191102352Y-117699500D01*
X190897648Y-117699500D01*
X190873329Y-117703351D01*
X190695465Y-117731522D01*
X190500776Y-117794781D01*
X190318386Y-117887715D01*
X190152786Y-118008028D01*
X190008028Y-118152786D01*
X189887715Y-118318386D01*
X189794781Y-118500776D01*
X189731522Y-118695465D01*
X189699500Y-118897648D01*
X176828226Y-118897648D01*
X176774624Y-118792449D01*
X176735270Y-118738282D01*
X176735269Y-118738282D01*
X176102962Y-119370590D01*
X176085925Y-119307007D01*
X176020099Y-119192993D01*
X175927007Y-119099901D01*
X175812993Y-119034075D01*
X175749409Y-119017037D01*
X176381716Y-118384728D01*
X176327550Y-118345375D01*
X176138217Y-118248904D01*
X175936129Y-118183242D01*
X175726246Y-118150000D01*
X175513754Y-118150000D01*
X175303872Y-118183242D01*
X175303869Y-118183242D01*
X175101782Y-118248904D01*
X174912439Y-118345380D01*
X174858282Y-118384727D01*
X174858282Y-118384728D01*
X175490591Y-119017037D01*
X175427007Y-119034075D01*
X175312993Y-119099901D01*
X175219901Y-119192993D01*
X175154075Y-119307007D01*
X175137037Y-119370591D01*
X174504728Y-118738282D01*
X174504727Y-118738282D01*
X174465380Y-118792439D01*
X174368905Y-118981781D01*
X174359506Y-119010708D01*
X174320068Y-119068383D01*
X174255709Y-119095581D01*
X174186862Y-119083666D01*
X174135387Y-119036421D01*
X174131090Y-119028684D01*
X174107191Y-118981781D01*
X174063996Y-118897006D01*
X174050396Y-118878287D01*
X173957558Y-118750505D01*
X173957554Y-118750500D01*
X173829499Y-118622445D01*
X173829494Y-118622441D01*
X173705432Y-118532305D01*
X173682996Y-118516005D01*
X173521639Y-118433788D01*
X173521636Y-118433787D01*
X173349410Y-118377829D01*
X173170551Y-118349500D01*
X173170546Y-118349500D01*
X172989454Y-118349500D01*
X172989449Y-118349500D01*
X172810589Y-118377829D01*
X172638363Y-118433787D01*
X172638360Y-118433788D01*
X172477002Y-118516006D01*
X172330505Y-118622441D01*
X172330500Y-118622445D01*
X172202445Y-118750500D01*
X172202441Y-118750505D01*
X172096006Y-118897002D01*
X172013788Y-119058360D01*
X172013787Y-119058363D01*
X171957829Y-119230589D01*
X171932473Y-119390678D01*
X171902544Y-119453813D01*
X171843232Y-119490744D01*
X171773369Y-119489746D01*
X171715137Y-119451136D01*
X171687527Y-119390678D01*
X171672181Y-119293794D01*
X171662171Y-119230591D01*
X171619708Y-119099901D01*
X171606212Y-119058363D01*
X171606211Y-119058360D01*
X171567191Y-118981781D01*
X171523996Y-118897006D01*
X171510396Y-118878287D01*
X171417558Y-118750505D01*
X171417554Y-118750500D01*
X171289499Y-118622445D01*
X171289494Y-118622441D01*
X171142997Y-118516006D01*
X171142996Y-118516005D01*
X171142994Y-118516004D01*
X171066906Y-118477235D01*
X170981639Y-118433788D01*
X170981636Y-118433787D01*
X170809410Y-118377829D01*
X170630551Y-118349500D01*
X170630546Y-118349500D01*
X170449454Y-118349500D01*
X170449449Y-118349500D01*
X170270589Y-118377829D01*
X170098363Y-118433787D01*
X170098360Y-118433788D01*
X169937002Y-118516006D01*
X169790505Y-118622441D01*
X169790500Y-118622445D01*
X169662445Y-118750500D01*
X169662441Y-118750505D01*
X169556006Y-118897002D01*
X169473788Y-119058360D01*
X169473787Y-119058363D01*
X169417829Y-119230589D01*
X169396972Y-119362271D01*
X169367042Y-119425405D01*
X169307731Y-119462336D01*
X169237868Y-119461338D01*
X169179636Y-119422728D01*
X169151522Y-119358764D01*
X169150499Y-119342872D01*
X169150499Y-118605143D01*
X169150499Y-118605136D01*
X169150497Y-118605117D01*
X169147586Y-118580012D01*
X169147585Y-118580010D01*
X169147585Y-118580009D01*
X169102206Y-118477235D01*
X169022765Y-118397794D01*
X169022763Y-118397793D01*
X168919992Y-118352415D01*
X168894865Y-118349500D01*
X167105143Y-118349500D01*
X167105117Y-118349502D01*
X167080012Y-118352413D01*
X167080008Y-118352415D01*
X166977235Y-118397793D01*
X166897794Y-118477234D01*
X166852415Y-118580006D01*
X166852415Y-118580008D01*
X166849500Y-118605131D01*
X160239126Y-118605131D01*
X160210167Y-118516006D01*
X160205220Y-118500781D01*
X160205218Y-118500778D01*
X160205218Y-118500776D01*
X160146087Y-118384727D01*
X160112287Y-118318390D01*
X160061803Y-118248904D01*
X159991971Y-118152786D01*
X159847213Y-118008028D01*
X159681613Y-117887715D01*
X159681612Y-117887714D01*
X159681610Y-117887713D01*
X159624653Y-117858691D01*
X159499223Y-117794781D01*
X159304534Y-117731522D01*
X159129995Y-117703878D01*
X159102352Y-117699500D01*
X158897648Y-117699500D01*
X158873329Y-117703351D01*
X158695465Y-117731522D01*
X158500776Y-117794781D01*
X158318386Y-117887715D01*
X158152786Y-118008028D01*
X158008028Y-118152786D01*
X157887715Y-118318386D01*
X157794781Y-118500776D01*
X157731522Y-118695465D01*
X157699500Y-118897648D01*
X156500500Y-118897648D01*
X156500500Y-115064071D01*
X169349499Y-115064071D01*
X169374497Y-115189738D01*
X169374499Y-115189744D01*
X169423533Y-115308124D01*
X169423538Y-115308133D01*
X169494723Y-115414668D01*
X169494726Y-115414672D01*
X169585327Y-115505273D01*
X169585331Y-115505276D01*
X169691866Y-115576461D01*
X169691872Y-115576464D01*
X169691873Y-115576465D01*
X169810256Y-115625501D01*
X169810260Y-115625501D01*
X169810261Y-115625502D01*
X169935928Y-115650500D01*
X169935931Y-115650500D01*
X170064071Y-115650500D01*
X170148615Y-115633682D01*
X170189744Y-115625501D01*
X170308127Y-115576465D01*
X170315712Y-115571396D01*
X170382389Y-115550520D01*
X170384601Y-115550500D01*
X171115399Y-115550500D01*
X171182438Y-115570185D01*
X171184252Y-115571373D01*
X171191873Y-115576465D01*
X171310256Y-115625501D01*
X171310260Y-115625501D01*
X171310261Y-115625502D01*
X171435928Y-115650500D01*
X171435931Y-115650500D01*
X171564071Y-115650500D01*
X171648615Y-115633682D01*
X171689744Y-115625501D01*
X171808127Y-115576465D01*
X171914669Y-115505276D01*
X172005276Y-115414669D01*
X172076465Y-115308127D01*
X172125501Y-115189744D01*
X172150500Y-115064069D01*
X172150500Y-114935931D01*
X172150500Y-114935928D01*
X172125502Y-114810261D01*
X172125501Y-114810260D01*
X172125501Y-114810256D01*
X172076465Y-114691873D01*
X172076464Y-114691872D01*
X172076461Y-114691866D01*
X172005276Y-114585331D01*
X172005273Y-114585327D01*
X171914672Y-114494726D01*
X171914668Y-114494723D01*
X171808133Y-114423538D01*
X171808124Y-114423533D01*
X171689744Y-114374499D01*
X171689738Y-114374497D01*
X171564071Y-114349500D01*
X171564069Y-114349500D01*
X171435931Y-114349500D01*
X171435929Y-114349500D01*
X171310261Y-114374497D01*
X171310255Y-114374499D01*
X171191876Y-114423533D01*
X171191873Y-114423534D01*
X171191873Y-114423535D01*
X171184287Y-114428603D01*
X171117611Y-114449480D01*
X171115399Y-114449500D01*
X170384601Y-114449500D01*
X170317562Y-114429815D01*
X170315747Y-114428626D01*
X170308127Y-114423535D01*
X170308124Y-114423533D01*
X170308123Y-114423533D01*
X170189744Y-114374499D01*
X170189738Y-114374497D01*
X170064071Y-114349500D01*
X170064069Y-114349500D01*
X169935931Y-114349500D01*
X169935929Y-114349500D01*
X169810261Y-114374497D01*
X169810255Y-114374499D01*
X169691875Y-114423533D01*
X169691866Y-114423538D01*
X169585331Y-114494723D01*
X169585327Y-114494726D01*
X169494726Y-114585327D01*
X169494723Y-114585331D01*
X169423538Y-114691866D01*
X169423533Y-114691875D01*
X169374499Y-114810255D01*
X169374497Y-114810261D01*
X169349500Y-114935928D01*
X169349500Y-114935931D01*
X169349500Y-115064069D01*
X169349500Y-115064071D01*
X169349499Y-115064071D01*
X156500500Y-115064071D01*
X156500500Y-112669046D01*
X171744524Y-112669046D01*
X171769522Y-112794713D01*
X171769524Y-112794719D01*
X171818558Y-112913099D01*
X171818563Y-112913108D01*
X171889748Y-113019643D01*
X171889751Y-113019647D01*
X171980352Y-113110248D01*
X171980356Y-113110251D01*
X172086891Y-113181436D01*
X172086897Y-113181439D01*
X172086898Y-113181440D01*
X172205281Y-113230476D01*
X172205285Y-113230476D01*
X172205286Y-113230477D01*
X172330953Y-113255475D01*
X172330956Y-113255475D01*
X172459096Y-113255475D01*
X172543640Y-113238657D01*
X172584769Y-113230476D01*
X172703152Y-113181440D01*
X172809694Y-113110251D01*
X172900301Y-113019644D01*
X172971490Y-112913102D01*
X172984104Y-112882650D01*
X173027945Y-112828247D01*
X173094240Y-112806182D01*
X173098665Y-112806103D01*
X173640951Y-112806103D01*
X173707990Y-112825788D01*
X173709804Y-112826976D01*
X173717425Y-112832068D01*
X173835808Y-112881104D01*
X173835812Y-112881104D01*
X173835813Y-112881105D01*
X173961480Y-112906103D01*
X173961483Y-112906103D01*
X174089623Y-112906103D01*
X174174167Y-112889285D01*
X174215296Y-112881104D01*
X174333679Y-112832068D01*
X174440221Y-112760879D01*
X174530828Y-112670272D01*
X174602017Y-112563730D01*
X174651053Y-112445347D01*
X174676052Y-112319672D01*
X174676052Y-112191534D01*
X174676052Y-112191531D01*
X174651054Y-112065864D01*
X174651053Y-112065863D01*
X174651053Y-112065859D01*
X174602017Y-111947476D01*
X174602016Y-111947475D01*
X174602013Y-111947469D01*
X174530828Y-111840934D01*
X174530825Y-111840930D01*
X174440224Y-111750329D01*
X174440220Y-111750326D01*
X174333685Y-111679141D01*
X174333676Y-111679136D01*
X174215296Y-111630102D01*
X174215290Y-111630100D01*
X174089623Y-111605103D01*
X174089621Y-111605103D01*
X173961483Y-111605103D01*
X173961481Y-111605103D01*
X173835813Y-111630100D01*
X173835807Y-111630102D01*
X173717428Y-111679136D01*
X173717425Y-111679137D01*
X173717425Y-111679138D01*
X173709839Y-111684206D01*
X173643163Y-111705083D01*
X173640951Y-111705103D01*
X172671922Y-111705103D01*
X172587916Y-111727612D01*
X172531910Y-111742619D01*
X172531909Y-111742620D01*
X172406381Y-111815093D01*
X172277713Y-111943759D01*
X172216390Y-111977244D01*
X172214234Y-111977692D01*
X172205286Y-111979472D01*
X172205277Y-111979475D01*
X172086901Y-112028508D01*
X172086891Y-112028513D01*
X171980356Y-112099698D01*
X171980352Y-112099701D01*
X171889751Y-112190302D01*
X171889748Y-112190306D01*
X171818563Y-112296841D01*
X171818558Y-112296850D01*
X171769524Y-112415230D01*
X171769522Y-112415236D01*
X171744525Y-112540903D01*
X171744525Y-112540906D01*
X171744525Y-112669044D01*
X171744525Y-112669046D01*
X171744524Y-112669046D01*
X156500500Y-112669046D01*
X156500500Y-104628992D01*
X187094500Y-104628992D01*
X187094500Y-104831007D01*
X187133907Y-105029119D01*
X187133909Y-105029127D01*
X187211212Y-105215752D01*
X187211217Y-105215762D01*
X187323441Y-105383718D01*
X187466281Y-105526558D01*
X187634237Y-105638782D01*
X187634241Y-105638784D01*
X187634244Y-105638786D01*
X187820873Y-105716091D01*
X188018992Y-105755499D01*
X188018996Y-105755500D01*
X188018997Y-105755500D01*
X188771004Y-105755500D01*
X188771005Y-105755499D01*
X188969127Y-105716091D01*
X189155756Y-105638786D01*
X189323718Y-105526558D01*
X189466558Y-105383718D01*
X189578786Y-105215756D01*
X189656091Y-105029127D01*
X189695500Y-104831003D01*
X189695500Y-104628997D01*
X189656091Y-104430873D01*
X189613354Y-104327697D01*
X189605885Y-104258227D01*
X189637160Y-104195748D01*
X189680457Y-104165685D01*
X189776811Y-104125775D01*
X189891542Y-104049114D01*
X189989114Y-103951542D01*
X190065775Y-103836811D01*
X190072236Y-103821214D01*
X190118578Y-103709332D01*
X190118580Y-103709328D01*
X190132975Y-103636959D01*
X190145500Y-103573995D01*
X190145500Y-103436004D01*
X190118581Y-103300677D01*
X190118580Y-103300676D01*
X190118580Y-103300672D01*
X190118578Y-103300667D01*
X190065778Y-103173195D01*
X190065771Y-103173182D01*
X189989114Y-103058458D01*
X189989111Y-103058454D01*
X189891545Y-102960888D01*
X189891541Y-102960885D01*
X189776817Y-102884228D01*
X189776804Y-102884221D01*
X189649332Y-102831421D01*
X189649322Y-102831418D01*
X189513995Y-102804500D01*
X189513993Y-102804500D01*
X189376007Y-102804500D01*
X189376005Y-102804500D01*
X189240677Y-102831418D01*
X189240667Y-102831421D01*
X189113195Y-102884221D01*
X189113182Y-102884228D01*
X188998458Y-102960885D01*
X188998454Y-102960888D01*
X188900888Y-103058454D01*
X188900885Y-103058458D01*
X188824228Y-103173182D01*
X188824221Y-103173195D01*
X188771421Y-103300667D01*
X188771418Y-103300677D01*
X188744500Y-103436004D01*
X188744500Y-103580085D01*
X188741710Y-103580085D01*
X188730942Y-103636959D01*
X188682892Y-103687683D01*
X188620541Y-103704500D01*
X188018992Y-103704500D01*
X187820880Y-103743907D01*
X187820872Y-103743909D01*
X187634247Y-103821212D01*
X187634237Y-103821217D01*
X187466281Y-103933441D01*
X187323441Y-104076281D01*
X187211217Y-104244237D01*
X187211212Y-104244247D01*
X187133909Y-104430872D01*
X187133907Y-104430880D01*
X187094500Y-104628992D01*
X156500500Y-104628992D01*
X156500500Y-100918995D01*
X157469499Y-100918995D01*
X157496418Y-101054322D01*
X157496421Y-101054332D01*
X157549221Y-101181804D01*
X157549228Y-101181817D01*
X157625885Y-101296541D01*
X157625888Y-101296545D01*
X157723454Y-101394111D01*
X157723458Y-101394114D01*
X157838182Y-101470771D01*
X157838195Y-101470778D01*
X157965667Y-101523578D01*
X157965672Y-101523580D01*
X157965676Y-101523580D01*
X157965677Y-101523581D01*
X158101004Y-101550500D01*
X158101007Y-101550500D01*
X158238995Y-101550500D01*
X158330041Y-101532389D01*
X158374328Y-101523580D01*
X158501811Y-101470775D01*
X158616542Y-101394114D01*
X158714114Y-101296542D01*
X158790775Y-101181811D01*
X158843580Y-101054328D01*
X158870500Y-100918993D01*
X158870500Y-100781007D01*
X158870500Y-100781004D01*
X158843581Y-100645677D01*
X158843580Y-100645676D01*
X158843580Y-100645672D01*
X158843578Y-100645667D01*
X158790778Y-100518195D01*
X158790771Y-100518182D01*
X158714114Y-100403458D01*
X158714111Y-100403454D01*
X158616545Y-100305888D01*
X158616541Y-100305885D01*
X158501817Y-100229228D01*
X158501804Y-100229221D01*
X158374332Y-100176421D01*
X158374322Y-100176418D01*
X158238995Y-100149500D01*
X158238993Y-100149500D01*
X158101007Y-100149500D01*
X158101005Y-100149500D01*
X157965677Y-100176418D01*
X157965667Y-100176421D01*
X157838195Y-100229221D01*
X157838182Y-100229228D01*
X157723458Y-100305885D01*
X157723454Y-100305888D01*
X157625888Y-100403454D01*
X157625885Y-100403458D01*
X157549228Y-100518182D01*
X157549221Y-100518195D01*
X157496421Y-100645667D01*
X157496418Y-100645677D01*
X157469500Y-100781004D01*
X157469500Y-100781007D01*
X157469500Y-100918993D01*
X157469500Y-100918995D01*
X157469499Y-100918995D01*
X156500500Y-100918995D01*
X156500500Y-97918995D01*
X157469499Y-97918995D01*
X157496418Y-98054322D01*
X157496421Y-98054332D01*
X157549221Y-98181804D01*
X157549228Y-98181817D01*
X157625885Y-98296541D01*
X157625888Y-98296545D01*
X157723454Y-98394111D01*
X157723458Y-98394114D01*
X157838182Y-98470771D01*
X157838195Y-98470778D01*
X157965667Y-98523578D01*
X157965672Y-98523580D01*
X157965676Y-98523580D01*
X157965677Y-98523581D01*
X158101004Y-98550500D01*
X158101007Y-98550500D01*
X158238995Y-98550500D01*
X158330041Y-98532389D01*
X158374328Y-98523580D01*
X158501811Y-98470775D01*
X158616542Y-98394114D01*
X158714114Y-98296542D01*
X158790775Y-98181811D01*
X158843580Y-98054328D01*
X158859985Y-97971855D01*
X158870500Y-97918995D01*
X158870500Y-97781004D01*
X158843581Y-97645677D01*
X158843580Y-97645676D01*
X158843580Y-97645672D01*
X158816302Y-97579816D01*
X158790778Y-97518195D01*
X158790771Y-97518182D01*
X158714114Y-97403458D01*
X158714111Y-97403454D01*
X158616545Y-97305888D01*
X158616541Y-97305885D01*
X158571826Y-97276007D01*
X158501817Y-97229228D01*
X158501804Y-97229221D01*
X158380539Y-97178992D01*
X187094500Y-97178992D01*
X187094500Y-97381007D01*
X187133907Y-97579119D01*
X187133909Y-97579127D01*
X187211212Y-97765752D01*
X187211217Y-97765762D01*
X187323441Y-97933718D01*
X187466281Y-98076558D01*
X187634237Y-98188782D01*
X187634241Y-98188784D01*
X187634244Y-98188786D01*
X187820873Y-98266091D01*
X187973957Y-98296541D01*
X188018992Y-98305499D01*
X188018996Y-98305500D01*
X188018997Y-98305500D01*
X188620541Y-98305500D01*
X188687580Y-98325185D01*
X188733335Y-98377989D01*
X188741980Y-98429915D01*
X188744500Y-98429915D01*
X188744500Y-98436007D01*
X188744500Y-98573993D01*
X188744500Y-98573995D01*
X188744499Y-98573995D01*
X188771418Y-98709322D01*
X188771421Y-98709332D01*
X188824221Y-98836804D01*
X188824228Y-98836817D01*
X188900885Y-98951541D01*
X188900888Y-98951545D01*
X188998454Y-99049111D01*
X188998458Y-99049114D01*
X189113182Y-99125771D01*
X189113195Y-99125778D01*
X189240667Y-99178578D01*
X189240672Y-99178580D01*
X189240676Y-99178580D01*
X189240677Y-99178581D01*
X189376004Y-99205500D01*
X189376007Y-99205500D01*
X189513995Y-99205500D01*
X189605041Y-99187389D01*
X189649328Y-99178580D01*
X189776811Y-99125775D01*
X189891542Y-99049114D01*
X189989114Y-98951542D01*
X190065775Y-98836811D01*
X190118580Y-98709328D01*
X190145500Y-98573993D01*
X190145500Y-98436007D01*
X190145500Y-98436004D01*
X190118581Y-98300677D01*
X190118580Y-98300676D01*
X190118580Y-98300672D01*
X190072236Y-98188787D01*
X190065778Y-98173195D01*
X190065771Y-98173182D01*
X189989114Y-98058458D01*
X189989111Y-98058454D01*
X189891545Y-97960888D01*
X189891541Y-97960885D01*
X189776817Y-97884228D01*
X189776804Y-97884221D01*
X189680462Y-97844316D01*
X189626058Y-97800476D01*
X189603993Y-97734182D01*
X189613351Y-97682307D01*
X189656091Y-97579127D01*
X189695500Y-97381003D01*
X189695500Y-97178997D01*
X189656091Y-96980873D01*
X189578786Y-96794244D01*
X189578784Y-96794241D01*
X189578782Y-96794237D01*
X189466558Y-96626281D01*
X189323718Y-96483441D01*
X189155762Y-96371217D01*
X189155752Y-96371212D01*
X188969127Y-96293909D01*
X188969119Y-96293907D01*
X188771007Y-96254500D01*
X188771003Y-96254500D01*
X188018997Y-96254500D01*
X188018992Y-96254500D01*
X187820880Y-96293907D01*
X187820872Y-96293909D01*
X187634247Y-96371212D01*
X187634237Y-96371217D01*
X187466281Y-96483441D01*
X187323441Y-96626281D01*
X187211217Y-96794237D01*
X187211212Y-96794247D01*
X187133909Y-96980872D01*
X187133907Y-96980880D01*
X187094500Y-97178992D01*
X158380539Y-97178992D01*
X158374332Y-97176421D01*
X158374322Y-97176418D01*
X158238995Y-97149500D01*
X158238993Y-97149500D01*
X158101007Y-97149500D01*
X158101005Y-97149500D01*
X157965677Y-97176418D01*
X157965667Y-97176421D01*
X157838195Y-97229221D01*
X157838182Y-97229228D01*
X157723458Y-97305885D01*
X157723454Y-97305888D01*
X157625888Y-97403454D01*
X157625885Y-97403458D01*
X157549228Y-97518182D01*
X157549221Y-97518195D01*
X157496421Y-97645667D01*
X157496418Y-97645677D01*
X157469500Y-97781004D01*
X157469500Y-97781007D01*
X157469500Y-97918993D01*
X157469500Y-97918995D01*
X157469499Y-97918995D01*
X156500500Y-97918995D01*
X156500500Y-91503750D01*
X156500726Y-91496263D01*
X156506691Y-91397648D01*
X157699500Y-91397648D01*
X157699500Y-91602351D01*
X157731522Y-91804534D01*
X157794781Y-91999223D01*
X157853911Y-92115270D01*
X157870376Y-92147585D01*
X157887715Y-92181613D01*
X158008028Y-92347213D01*
X158152786Y-92491971D01*
X158307749Y-92604556D01*
X158318390Y-92612287D01*
X158434607Y-92671503D01*
X158500776Y-92705218D01*
X158500778Y-92705218D01*
X158500781Y-92705220D01*
X158605137Y-92739127D01*
X158695465Y-92768477D01*
X158796557Y-92784488D01*
X158897648Y-92800500D01*
X158897649Y-92800500D01*
X159102351Y-92800500D01*
X159102352Y-92800500D01*
X159304534Y-92768477D01*
X159499219Y-92705220D01*
X159681610Y-92612287D01*
X159774590Y-92544732D01*
X159847213Y-92491971D01*
X159847215Y-92491968D01*
X159847219Y-92491966D01*
X159991966Y-92347219D01*
X159991968Y-92347215D01*
X159991971Y-92347213D01*
X160044732Y-92274590D01*
X160112287Y-92181610D01*
X160175317Y-92057905D01*
X160198853Y-92011716D01*
X160198853Y-92011715D01*
X160199106Y-92011217D01*
X160205220Y-91999219D01*
X160268477Y-91804534D01*
X160300500Y-91602352D01*
X160300500Y-91397648D01*
X160299728Y-91392776D01*
X160268477Y-91195465D01*
X160217528Y-91038661D01*
X160205220Y-91000781D01*
X160205218Y-91000778D01*
X160205218Y-91000776D01*
X160176888Y-90945176D01*
X160154802Y-90901831D01*
X160150686Y-90893753D01*
X164340000Y-90893753D01*
X164340000Y-91106246D01*
X164373242Y-91316127D01*
X164373242Y-91316130D01*
X164438904Y-91518217D01*
X164535375Y-91707550D01*
X164574728Y-91761716D01*
X165207037Y-91129408D01*
X165224075Y-91192993D01*
X165289901Y-91307007D01*
X165382993Y-91400099D01*
X165497007Y-91465925D01*
X165560590Y-91482962D01*
X164928282Y-92115269D01*
X164928282Y-92115270D01*
X164982449Y-92154624D01*
X165171782Y-92251095D01*
X165373870Y-92316757D01*
X165583754Y-92350000D01*
X165796246Y-92350000D01*
X166006127Y-92316757D01*
X166006130Y-92316757D01*
X166208217Y-92251095D01*
X166397554Y-92154622D01*
X166451716Y-92115270D01*
X166451717Y-92115270D01*
X165819408Y-91482962D01*
X165882993Y-91465925D01*
X165997007Y-91400099D01*
X166090099Y-91307007D01*
X166155925Y-91192993D01*
X166172962Y-91129409D01*
X166805270Y-91761717D01*
X166805270Y-91761716D01*
X166844622Y-91707554D01*
X166941095Y-91518217D01*
X166950492Y-91489295D01*
X166989928Y-91431618D01*
X167054286Y-91404419D01*
X167123133Y-91416331D01*
X167174610Y-91463574D01*
X167178908Y-91471314D01*
X167246004Y-91602995D01*
X167352441Y-91749494D01*
X167352445Y-91749499D01*
X167480500Y-91877554D01*
X167480505Y-91877558D01*
X167608287Y-91970396D01*
X167627006Y-91983996D01*
X167703094Y-92022765D01*
X167788360Y-92066211D01*
X167788363Y-92066212D01*
X167874476Y-92094191D01*
X167960591Y-92122171D01*
X168043429Y-92135291D01*
X168139449Y-92150500D01*
X168139454Y-92150500D01*
X168320551Y-92150500D01*
X168407259Y-92136765D01*
X168499409Y-92122171D01*
X168671639Y-92066211D01*
X168832994Y-91983996D01*
X168979501Y-91877553D01*
X169107553Y-91749501D01*
X169213996Y-91602994D01*
X169296211Y-91441639D01*
X169352171Y-91269409D01*
X169373027Y-91137729D01*
X169377527Y-91109321D01*
X169407456Y-91046186D01*
X169466768Y-91009255D01*
X169536630Y-91010253D01*
X169594863Y-91048863D01*
X169622473Y-91109321D01*
X169647829Y-91269410D01*
X169703787Y-91441636D01*
X169703788Y-91441639D01*
X169759664Y-91551300D01*
X169785676Y-91602351D01*
X169786006Y-91602997D01*
X169892441Y-91749494D01*
X169892445Y-91749499D01*
X170020500Y-91877554D01*
X170020505Y-91877558D01*
X170148287Y-91970396D01*
X170167006Y-91983996D01*
X170243094Y-92022765D01*
X170328360Y-92066211D01*
X170328363Y-92066212D01*
X170414476Y-92094191D01*
X170500591Y-92122171D01*
X170583429Y-92135291D01*
X170679449Y-92150500D01*
X170679454Y-92150500D01*
X170860551Y-92150500D01*
X170947259Y-92136765D01*
X171039409Y-92122171D01*
X171211639Y-92066211D01*
X171372994Y-91983996D01*
X171519501Y-91877553D01*
X171647553Y-91749501D01*
X171753996Y-91602994D01*
X171836211Y-91441639D01*
X171892171Y-91269409D01*
X171913027Y-91137729D01*
X171942956Y-91074595D01*
X172002267Y-91037663D01*
X172072130Y-91038661D01*
X172130363Y-91077271D01*
X172158477Y-91141234D01*
X172159500Y-91157127D01*
X172159500Y-91894856D01*
X172159502Y-91894882D01*
X172162413Y-91919987D01*
X172162415Y-91919991D01*
X172207793Y-92022764D01*
X172207794Y-92022765D01*
X172287235Y-92102206D01*
X172390009Y-92147585D01*
X172415135Y-92150500D01*
X174204864Y-92150499D01*
X174204879Y-92150497D01*
X174204882Y-92150497D01*
X174229987Y-92147586D01*
X174229988Y-92147585D01*
X174229991Y-92147585D01*
X174332765Y-92102206D01*
X174412206Y-92022765D01*
X174457585Y-91919991D01*
X174460500Y-91894865D01*
X174460499Y-90893753D01*
X177340000Y-90893753D01*
X177340000Y-91106246D01*
X177373242Y-91316127D01*
X177373242Y-91316130D01*
X177438904Y-91518217D01*
X177535375Y-91707550D01*
X177574728Y-91761716D01*
X178207037Y-91129408D01*
X178224075Y-91192993D01*
X178289901Y-91307007D01*
X178382993Y-91400099D01*
X178497007Y-91465925D01*
X178560590Y-91482962D01*
X177928282Y-92115269D01*
X177928282Y-92115270D01*
X177982449Y-92154624D01*
X178171782Y-92251095D01*
X178373870Y-92316757D01*
X178583754Y-92350000D01*
X178796246Y-92350000D01*
X179006127Y-92316757D01*
X179006130Y-92316757D01*
X179208217Y-92251095D01*
X179397554Y-92154622D01*
X179451716Y-92115270D01*
X179451717Y-92115270D01*
X178819408Y-91482962D01*
X178882993Y-91465925D01*
X178997007Y-91400099D01*
X179090099Y-91307007D01*
X179155925Y-91192993D01*
X179172962Y-91129408D01*
X179805270Y-91761717D01*
X179805270Y-91761716D01*
X179844622Y-91707554D01*
X179941095Y-91518217D01*
X179950492Y-91489295D01*
X179989928Y-91431618D01*
X180054286Y-91404419D01*
X180123133Y-91416331D01*
X180174610Y-91463574D01*
X180178908Y-91471314D01*
X180246004Y-91602995D01*
X180352441Y-91749494D01*
X180352445Y-91749499D01*
X180480500Y-91877554D01*
X180480505Y-91877558D01*
X180608287Y-91970396D01*
X180627006Y-91983996D01*
X180703094Y-92022765D01*
X180788360Y-92066211D01*
X180788363Y-92066212D01*
X180874476Y-92094191D01*
X180960591Y-92122171D01*
X181043429Y-92135291D01*
X181139449Y-92150500D01*
X181139454Y-92150500D01*
X181320551Y-92150500D01*
X181407259Y-92136765D01*
X181499409Y-92122171D01*
X181671639Y-92066211D01*
X181832994Y-91983996D01*
X181979501Y-91877553D01*
X182107553Y-91749501D01*
X182213996Y-91602994D01*
X182296211Y-91441639D01*
X182352171Y-91269409D01*
X182373027Y-91137729D01*
X182377527Y-91109321D01*
X182407456Y-91046186D01*
X182466768Y-91009255D01*
X182536630Y-91010253D01*
X182594863Y-91048863D01*
X182622473Y-91109321D01*
X182647829Y-91269410D01*
X182703787Y-91441636D01*
X182703788Y-91441639D01*
X182759664Y-91551300D01*
X182785676Y-91602351D01*
X182786006Y-91602997D01*
X182892441Y-91749494D01*
X182892445Y-91749499D01*
X183020500Y-91877554D01*
X183020505Y-91877558D01*
X183148287Y-91970396D01*
X183167006Y-91983996D01*
X183243094Y-92022765D01*
X183328360Y-92066211D01*
X183328363Y-92066212D01*
X183414476Y-92094191D01*
X183500591Y-92122171D01*
X183583429Y-92135291D01*
X183679449Y-92150500D01*
X183679454Y-92150500D01*
X183860551Y-92150500D01*
X183947259Y-92136765D01*
X184039409Y-92122171D01*
X184211639Y-92066211D01*
X184372994Y-91983996D01*
X184519501Y-91877553D01*
X184647553Y-91749501D01*
X184753996Y-91602994D01*
X184836211Y-91441639D01*
X184892171Y-91269409D01*
X184913027Y-91137729D01*
X184942956Y-91074595D01*
X185002267Y-91037663D01*
X185072130Y-91038661D01*
X185130363Y-91077271D01*
X185158477Y-91141234D01*
X185159500Y-91157127D01*
X185159500Y-91894856D01*
X185159502Y-91894882D01*
X185162413Y-91919987D01*
X185162415Y-91919991D01*
X185207793Y-92022764D01*
X185207794Y-92022765D01*
X185287235Y-92102206D01*
X185390009Y-92147585D01*
X185415135Y-92150500D01*
X187204864Y-92150499D01*
X187204879Y-92150497D01*
X187204882Y-92150497D01*
X187229987Y-92147586D01*
X187229988Y-92147585D01*
X187229991Y-92147585D01*
X187332765Y-92102206D01*
X187412206Y-92022765D01*
X187457585Y-91919991D01*
X187460500Y-91894865D01*
X187460499Y-91397648D01*
X189699500Y-91397648D01*
X189699500Y-91602351D01*
X189731522Y-91804534D01*
X189794781Y-91999223D01*
X189853911Y-92115270D01*
X189870376Y-92147585D01*
X189887715Y-92181613D01*
X190008028Y-92347213D01*
X190152786Y-92491971D01*
X190307749Y-92604556D01*
X190318390Y-92612287D01*
X190434607Y-92671503D01*
X190500776Y-92705218D01*
X190500778Y-92705218D01*
X190500781Y-92705220D01*
X190605137Y-92739127D01*
X190695465Y-92768477D01*
X190796557Y-92784488D01*
X190897648Y-92800500D01*
X190897649Y-92800500D01*
X191102351Y-92800500D01*
X191102352Y-92800500D01*
X191304534Y-92768477D01*
X191499219Y-92705220D01*
X191681610Y-92612287D01*
X191774590Y-92544732D01*
X191847213Y-92491971D01*
X191847215Y-92491968D01*
X191847219Y-92491966D01*
X191991966Y-92347219D01*
X191991968Y-92347215D01*
X191991971Y-92347213D01*
X192044732Y-92274590D01*
X192112287Y-92181610D01*
X192205220Y-91999219D01*
X192268477Y-91804534D01*
X192300500Y-91602352D01*
X192300500Y-91397648D01*
X192299728Y-91392776D01*
X192268477Y-91195465D01*
X192217528Y-91038661D01*
X192205220Y-91000781D01*
X192205218Y-91000778D01*
X192205218Y-91000776D01*
X192154802Y-90901831D01*
X192112287Y-90818390D01*
X192048498Y-90730591D01*
X191991971Y-90652786D01*
X191847213Y-90508028D01*
X191681613Y-90387715D01*
X191681612Y-90387714D01*
X191681610Y-90387713D01*
X191624653Y-90358691D01*
X191499223Y-90294781D01*
X191304534Y-90231522D01*
X191129995Y-90203878D01*
X191102352Y-90199500D01*
X190897648Y-90199500D01*
X190873329Y-90203351D01*
X190695465Y-90231522D01*
X190500776Y-90294781D01*
X190318386Y-90387715D01*
X190152786Y-90508028D01*
X190008028Y-90652786D01*
X189887715Y-90818386D01*
X189794781Y-91000776D01*
X189731522Y-91195465D01*
X189699500Y-91397648D01*
X187460499Y-91397648D01*
X187460499Y-91000000D01*
X187460499Y-90105143D01*
X187460499Y-90105136D01*
X187458343Y-90086541D01*
X187457586Y-90080012D01*
X187457585Y-90080010D01*
X187457585Y-90080009D01*
X187412206Y-89977235D01*
X187332765Y-89897794D01*
X187332763Y-89897793D01*
X187229992Y-89852415D01*
X187204865Y-89849500D01*
X185415143Y-89849500D01*
X185415117Y-89849502D01*
X185390012Y-89852413D01*
X185390008Y-89852415D01*
X185287235Y-89897793D01*
X185207794Y-89977234D01*
X185162415Y-90080006D01*
X185162415Y-90080008D01*
X185159500Y-90105131D01*
X185159500Y-90842871D01*
X185139815Y-90909910D01*
X185087011Y-90955665D01*
X185017853Y-90965609D01*
X184954297Y-90936584D01*
X184916523Y-90877806D01*
X184913027Y-90862269D01*
X184904274Y-90807007D01*
X184892171Y-90730591D01*
X184864191Y-90644476D01*
X184836212Y-90558363D01*
X184836211Y-90558360D01*
X184797191Y-90481780D01*
X184753996Y-90397006D01*
X184711435Y-90338425D01*
X184647558Y-90250505D01*
X184647554Y-90250500D01*
X184519499Y-90122445D01*
X184519494Y-90122441D01*
X184372997Y-90016006D01*
X184372996Y-90016005D01*
X184372994Y-90016004D01*
X184296906Y-89977235D01*
X184211639Y-89933788D01*
X184211636Y-89933787D01*
X184039410Y-89877829D01*
X183860551Y-89849500D01*
X183860546Y-89849500D01*
X183679454Y-89849500D01*
X183679449Y-89849500D01*
X183500589Y-89877829D01*
X183328363Y-89933787D01*
X183328360Y-89933788D01*
X183167002Y-90016006D01*
X183020505Y-90122441D01*
X183020500Y-90122445D01*
X182892445Y-90250500D01*
X182892441Y-90250505D01*
X182786006Y-90397002D01*
X182703788Y-90558360D01*
X182703787Y-90558363D01*
X182647829Y-90730589D01*
X182622473Y-90890678D01*
X182592544Y-90953813D01*
X182533232Y-90990744D01*
X182463369Y-90989746D01*
X182405137Y-90951136D01*
X182377527Y-90890678D01*
X182363740Y-90803639D01*
X182352171Y-90730591D01*
X182324191Y-90644476D01*
X182296212Y-90558363D01*
X182296211Y-90558360D01*
X182257191Y-90481780D01*
X182213996Y-90397006D01*
X182171435Y-90338425D01*
X182107558Y-90250505D01*
X182107554Y-90250500D01*
X181979499Y-90122445D01*
X181979494Y-90122441D01*
X181832997Y-90016006D01*
X181832996Y-90016005D01*
X181832994Y-90016004D01*
X181756906Y-89977235D01*
X181671639Y-89933788D01*
X181671636Y-89933787D01*
X181499410Y-89877829D01*
X181320551Y-89849500D01*
X181320546Y-89849500D01*
X181139454Y-89849500D01*
X181139449Y-89849500D01*
X180960589Y-89877829D01*
X180788363Y-89933787D01*
X180788360Y-89933788D01*
X180627002Y-90016006D01*
X180480505Y-90122441D01*
X180480500Y-90122445D01*
X180352445Y-90250500D01*
X180352441Y-90250505D01*
X180246004Y-90397004D01*
X180178908Y-90528685D01*
X180130933Y-90579480D01*
X180063112Y-90596275D01*
X179996977Y-90573737D01*
X179953527Y-90519021D01*
X179950492Y-90510705D01*
X179941094Y-90481780D01*
X179844624Y-90292449D01*
X179805270Y-90238282D01*
X179805269Y-90238282D01*
X179172962Y-90870590D01*
X179155925Y-90807007D01*
X179090099Y-90692993D01*
X178997007Y-90599901D01*
X178882993Y-90534075D01*
X178819409Y-90517037D01*
X179451716Y-89884728D01*
X179397550Y-89845375D01*
X179208217Y-89748904D01*
X179006129Y-89683242D01*
X178796246Y-89650000D01*
X178583754Y-89650000D01*
X178373872Y-89683242D01*
X178373869Y-89683242D01*
X178171782Y-89748904D01*
X177982439Y-89845380D01*
X177928282Y-89884727D01*
X177928282Y-89884728D01*
X178560591Y-90517037D01*
X178497007Y-90534075D01*
X178382993Y-90599901D01*
X178289901Y-90692993D01*
X178224075Y-90807007D01*
X178207037Y-90870591D01*
X177574728Y-90238282D01*
X177574727Y-90238282D01*
X177535380Y-90292439D01*
X177438904Y-90481782D01*
X177373242Y-90683869D01*
X177373242Y-90683872D01*
X177340000Y-90893753D01*
X174460499Y-90893753D01*
X174460499Y-90105136D01*
X174458343Y-90086541D01*
X174457586Y-90080012D01*
X174457585Y-90080011D01*
X174457585Y-90080009D01*
X174412206Y-89977235D01*
X174332765Y-89897794D01*
X174332763Y-89897793D01*
X174229992Y-89852415D01*
X174204865Y-89849500D01*
X172415143Y-89849500D01*
X172415117Y-89849502D01*
X172390012Y-89852413D01*
X172390008Y-89852415D01*
X172287235Y-89897793D01*
X172207794Y-89977234D01*
X172162415Y-90080006D01*
X172162415Y-90080008D01*
X172159500Y-90105131D01*
X172159500Y-90842871D01*
X172139815Y-90909910D01*
X172087011Y-90955665D01*
X172017853Y-90965609D01*
X171954297Y-90936584D01*
X171916523Y-90877806D01*
X171913027Y-90862269D01*
X171904274Y-90807007D01*
X171892171Y-90730591D01*
X171864191Y-90644476D01*
X171836212Y-90558363D01*
X171836211Y-90558360D01*
X171797191Y-90481780D01*
X171753996Y-90397006D01*
X171711435Y-90338425D01*
X171647558Y-90250505D01*
X171647554Y-90250500D01*
X171519499Y-90122445D01*
X171519494Y-90122441D01*
X171372997Y-90016006D01*
X171372996Y-90016005D01*
X171372994Y-90016004D01*
X171296906Y-89977235D01*
X171211639Y-89933788D01*
X171211636Y-89933787D01*
X171039410Y-89877829D01*
X170860551Y-89849500D01*
X170860546Y-89849500D01*
X170679454Y-89849500D01*
X170679449Y-89849500D01*
X170500589Y-89877829D01*
X170328363Y-89933787D01*
X170328360Y-89933788D01*
X170167002Y-90016006D01*
X170020505Y-90122441D01*
X170020500Y-90122445D01*
X169892445Y-90250500D01*
X169892441Y-90250505D01*
X169786006Y-90397002D01*
X169703788Y-90558360D01*
X169703787Y-90558363D01*
X169647829Y-90730589D01*
X169622473Y-90890678D01*
X169592544Y-90953813D01*
X169533232Y-90990744D01*
X169463369Y-90989746D01*
X169405137Y-90951136D01*
X169377527Y-90890678D01*
X169363740Y-90803639D01*
X169352171Y-90730591D01*
X169324191Y-90644476D01*
X169296212Y-90558363D01*
X169296211Y-90558360D01*
X169257191Y-90481780D01*
X169213996Y-90397006D01*
X169171435Y-90338425D01*
X169107558Y-90250505D01*
X169107554Y-90250500D01*
X168979499Y-90122445D01*
X168979494Y-90122441D01*
X168832997Y-90016006D01*
X168832996Y-90016005D01*
X168832994Y-90016004D01*
X168756906Y-89977235D01*
X168671639Y-89933788D01*
X168671636Y-89933787D01*
X168499410Y-89877829D01*
X168320551Y-89849500D01*
X168320546Y-89849500D01*
X168139454Y-89849500D01*
X168139449Y-89849500D01*
X167960589Y-89877829D01*
X167788363Y-89933787D01*
X167788360Y-89933788D01*
X167627002Y-90016006D01*
X167480505Y-90122441D01*
X167480500Y-90122445D01*
X167352445Y-90250500D01*
X167352441Y-90250505D01*
X167246004Y-90397004D01*
X167178908Y-90528685D01*
X167130933Y-90579480D01*
X167063112Y-90596275D01*
X166996977Y-90573737D01*
X166953527Y-90519021D01*
X166950492Y-90510705D01*
X166941094Y-90481780D01*
X166844624Y-90292449D01*
X166805270Y-90238282D01*
X166805269Y-90238282D01*
X166172962Y-90870590D01*
X166155925Y-90807007D01*
X166090099Y-90692993D01*
X165997007Y-90599901D01*
X165882993Y-90534075D01*
X165819409Y-90517037D01*
X166451716Y-89884728D01*
X166397550Y-89845375D01*
X166208217Y-89748904D01*
X166006129Y-89683242D01*
X165796246Y-89650000D01*
X165583754Y-89650000D01*
X165373872Y-89683242D01*
X165373869Y-89683242D01*
X165171782Y-89748904D01*
X164982439Y-89845380D01*
X164928282Y-89884727D01*
X164928282Y-89884728D01*
X165560591Y-90517037D01*
X165497007Y-90534075D01*
X165382993Y-90599901D01*
X165289901Y-90692993D01*
X165224075Y-90807007D01*
X165207037Y-90870591D01*
X164574728Y-90238282D01*
X164574727Y-90238282D01*
X164535380Y-90292439D01*
X164438904Y-90481782D01*
X164373242Y-90683869D01*
X164373242Y-90683872D01*
X164340000Y-90893753D01*
X160150686Y-90893753D01*
X160112287Y-90818390D01*
X160048498Y-90730591D01*
X159991971Y-90652786D01*
X159847213Y-90508028D01*
X159681613Y-90387715D01*
X159681612Y-90387714D01*
X159681610Y-90387713D01*
X159624653Y-90358691D01*
X159499223Y-90294781D01*
X159304534Y-90231522D01*
X159129995Y-90203878D01*
X159102352Y-90199500D01*
X158897648Y-90199500D01*
X158873329Y-90203351D01*
X158695465Y-90231522D01*
X158500776Y-90294781D01*
X158318386Y-90387715D01*
X158152786Y-90508028D01*
X158008028Y-90652786D01*
X157887715Y-90818386D01*
X157794781Y-91000776D01*
X157731522Y-91195465D01*
X157699500Y-91397648D01*
X156506691Y-91397648D01*
X156507439Y-91385289D01*
X156518271Y-91206205D01*
X156520076Y-91191340D01*
X156529259Y-91141234D01*
X156571780Y-90909198D01*
X156575364Y-90894664D01*
X156585459Y-90862269D01*
X156660699Y-90620812D01*
X156665997Y-90606842D01*
X156783727Y-90345258D01*
X156790680Y-90332012D01*
X156870786Y-90199500D01*
X156939075Y-90086534D01*
X156947567Y-90074230D01*
X157124474Y-89848426D01*
X157134396Y-89837226D01*
X157337226Y-89634396D01*
X157348417Y-89624481D01*
X157574230Y-89447567D01*
X157586534Y-89439075D01*
X157832012Y-89290680D01*
X157845258Y-89283727D01*
X158106842Y-89165997D01*
X158120812Y-89160699D01*
X158394668Y-89075362D01*
X158409198Y-89071780D01*
X158691344Y-89020075D01*
X158706201Y-89018271D01*
X158996264Y-89000726D01*
X159003751Y-89000500D01*
X159065892Y-89000500D01*
X190934108Y-89000500D01*
X190996249Y-89000500D01*
X191003736Y-89000726D01*
G37*
%TD.AperFunction*%
%TD*%
M02*
