%TF.GenerationSoftware,KiCad,Pcbnew,10.0.6*%
%TF.CreationDate,2026-09-10T23:48:29+05:30*%
%TF.ProjectId,STM32_schm,53544d33-325f-4736-9368-6d2e6b696361,rev?*%
%TF.SameCoordinates,Original*%
%TF.FileFunction,Legend,Top*%
%TF.FilePolarity,Positive*%
%FSLAX46Y46*%
G04 Gerber Fmt 4.6, Leading zero omitted, Abs format (unit mm)*
G04 Created by KiCad (PCBNEW 10.0.6) date 2026-09-10 23:48:29*
%MOMM*%
%LPD*%
G01*
G04 APERTURE LIST*
%ADD10C,0.200000*%
%ADD11C,0.150000*%
%ADD12C,0.120000*%
G04 APERTURE END LIST*
D10*
X163869673Y-119367219D02*
X163869673Y-118367219D01*
X164298244Y-118462457D02*
X164345863Y-118414838D01*
X164345863Y-118414838D02*
X164441101Y-118367219D01*
X164441101Y-118367219D02*
X164679196Y-118367219D01*
X164679196Y-118367219D02*
X164774434Y-118414838D01*
X164774434Y-118414838D02*
X164822053Y-118462457D01*
X164822053Y-118462457D02*
X164869672Y-118557695D01*
X164869672Y-118557695D02*
X164869672Y-118652933D01*
X164869672Y-118652933D02*
X164822053Y-118795790D01*
X164822053Y-118795790D02*
X164250625Y-119367219D01*
X164250625Y-119367219D02*
X164869672Y-119367219D01*
X165869672Y-119271980D02*
X165822053Y-119319600D01*
X165822053Y-119319600D02*
X165679196Y-119367219D01*
X165679196Y-119367219D02*
X165583958Y-119367219D01*
X165583958Y-119367219D02*
X165441101Y-119319600D01*
X165441101Y-119319600D02*
X165345863Y-119224361D01*
X165345863Y-119224361D02*
X165298244Y-119129123D01*
X165298244Y-119129123D02*
X165250625Y-118938647D01*
X165250625Y-118938647D02*
X165250625Y-118795790D01*
X165250625Y-118795790D02*
X165298244Y-118605314D01*
X165298244Y-118605314D02*
X165345863Y-118510076D01*
X165345863Y-118510076D02*
X165441101Y-118414838D01*
X165441101Y-118414838D02*
X165583958Y-118367219D01*
X165583958Y-118367219D02*
X165679196Y-118367219D01*
X165679196Y-118367219D02*
X165822053Y-118414838D01*
X165822053Y-118414838D02*
X165869672Y-118462457D01*
X190869673Y-94867219D02*
X190869673Y-95676742D01*
X190869673Y-95676742D02*
X190917292Y-95771980D01*
X190917292Y-95771980D02*
X190964911Y-95819600D01*
X190964911Y-95819600D02*
X191060149Y-95867219D01*
X191060149Y-95867219D02*
X191250625Y-95867219D01*
X191250625Y-95867219D02*
X191345863Y-95819600D01*
X191345863Y-95819600D02*
X191393482Y-95771980D01*
X191393482Y-95771980D02*
X191441101Y-95676742D01*
X191441101Y-95676742D02*
X191441101Y-94867219D01*
X191869673Y-95819600D02*
X192012530Y-95867219D01*
X192012530Y-95867219D02*
X192250625Y-95867219D01*
X192250625Y-95867219D02*
X192345863Y-95819600D01*
X192345863Y-95819600D02*
X192393482Y-95771980D01*
X192393482Y-95771980D02*
X192441101Y-95676742D01*
X192441101Y-95676742D02*
X192441101Y-95581504D01*
X192441101Y-95581504D02*
X192393482Y-95486266D01*
X192393482Y-95486266D02*
X192345863Y-95438647D01*
X192345863Y-95438647D02*
X192250625Y-95391028D01*
X192250625Y-95391028D02*
X192060149Y-95343409D01*
X192060149Y-95343409D02*
X191964911Y-95295790D01*
X191964911Y-95295790D02*
X191917292Y-95248171D01*
X191917292Y-95248171D02*
X191869673Y-95152933D01*
X191869673Y-95152933D02*
X191869673Y-95057695D01*
X191869673Y-95057695D02*
X191917292Y-94962457D01*
X191917292Y-94962457D02*
X191964911Y-94914838D01*
X191964911Y-94914838D02*
X192060149Y-94867219D01*
X192060149Y-94867219D02*
X192298244Y-94867219D01*
X192298244Y-94867219D02*
X192441101Y-94914838D01*
X193203006Y-95343409D02*
X193345863Y-95391028D01*
X193345863Y-95391028D02*
X193393482Y-95438647D01*
X193393482Y-95438647D02*
X193441101Y-95533885D01*
X193441101Y-95533885D02*
X193441101Y-95676742D01*
X193441101Y-95676742D02*
X193393482Y-95771980D01*
X193393482Y-95771980D02*
X193345863Y-95819600D01*
X193345863Y-95819600D02*
X193250625Y-95867219D01*
X193250625Y-95867219D02*
X192869673Y-95867219D01*
X192869673Y-95867219D02*
X192869673Y-94867219D01*
X192869673Y-94867219D02*
X193203006Y-94867219D01*
X193203006Y-94867219D02*
X193298244Y-94914838D01*
X193298244Y-94914838D02*
X193345863Y-94962457D01*
X193345863Y-94962457D02*
X193393482Y-95057695D01*
X193393482Y-95057695D02*
X193393482Y-95152933D01*
X193393482Y-95152933D02*
X193345863Y-95248171D01*
X193345863Y-95248171D02*
X193298244Y-95295790D01*
X193298244Y-95295790D02*
X193203006Y-95343409D01*
X193203006Y-95343409D02*
X192869673Y-95343409D01*
X161843409Y-96796993D02*
X161891028Y-96654136D01*
X161891028Y-96654136D02*
X161938647Y-96606517D01*
X161938647Y-96606517D02*
X162033885Y-96558898D01*
X162033885Y-96558898D02*
X162176742Y-96558898D01*
X162176742Y-96558898D02*
X162271980Y-96606517D01*
X162271980Y-96606517D02*
X162319600Y-96654136D01*
X162319600Y-96654136D02*
X162367219Y-96749374D01*
X162367219Y-96749374D02*
X162367219Y-97130326D01*
X162367219Y-97130326D02*
X161367219Y-97130326D01*
X161367219Y-97130326D02*
X161367219Y-96796993D01*
X161367219Y-96796993D02*
X161414838Y-96701755D01*
X161414838Y-96701755D02*
X161462457Y-96654136D01*
X161462457Y-96654136D02*
X161557695Y-96606517D01*
X161557695Y-96606517D02*
X161652933Y-96606517D01*
X161652933Y-96606517D02*
X161748171Y-96654136D01*
X161748171Y-96654136D02*
X161795790Y-96701755D01*
X161795790Y-96701755D02*
X161843409Y-96796993D01*
X161843409Y-96796993D02*
X161843409Y-97130326D01*
X161367219Y-95939850D02*
X161367219Y-95749374D01*
X161367219Y-95749374D02*
X161414838Y-95654136D01*
X161414838Y-95654136D02*
X161510076Y-95558898D01*
X161510076Y-95558898D02*
X161700552Y-95511279D01*
X161700552Y-95511279D02*
X162033885Y-95511279D01*
X162033885Y-95511279D02*
X162224361Y-95558898D01*
X162224361Y-95558898D02*
X162319600Y-95654136D01*
X162319600Y-95654136D02*
X162367219Y-95749374D01*
X162367219Y-95749374D02*
X162367219Y-95939850D01*
X162367219Y-95939850D02*
X162319600Y-96035088D01*
X162319600Y-96035088D02*
X162224361Y-96130326D01*
X162224361Y-96130326D02*
X162033885Y-96177945D01*
X162033885Y-96177945D02*
X161700552Y-96177945D01*
X161700552Y-96177945D02*
X161510076Y-96130326D01*
X161510076Y-96130326D02*
X161414838Y-96035088D01*
X161414838Y-96035088D02*
X161367219Y-95939850D01*
X161367219Y-94892231D02*
X161367219Y-94701755D01*
X161367219Y-94701755D02*
X161414838Y-94606517D01*
X161414838Y-94606517D02*
X161510076Y-94511279D01*
X161510076Y-94511279D02*
X161700552Y-94463660D01*
X161700552Y-94463660D02*
X162033885Y-94463660D01*
X162033885Y-94463660D02*
X162224361Y-94511279D01*
X162224361Y-94511279D02*
X162319600Y-94606517D01*
X162319600Y-94606517D02*
X162367219Y-94701755D01*
X162367219Y-94701755D02*
X162367219Y-94892231D01*
X162367219Y-94892231D02*
X162319600Y-94987469D01*
X162319600Y-94987469D02*
X162224361Y-95082707D01*
X162224361Y-95082707D02*
X162033885Y-95130326D01*
X162033885Y-95130326D02*
X161700552Y-95130326D01*
X161700552Y-95130326D02*
X161510076Y-95082707D01*
X161510076Y-95082707D02*
X161414838Y-94987469D01*
X161414838Y-94987469D02*
X161367219Y-94892231D01*
X161367219Y-94177945D02*
X161367219Y-93606517D01*
X162367219Y-93892231D02*
X161367219Y-93892231D01*
X166869673Y-92867219D02*
X166869673Y-93676742D01*
X166869673Y-93676742D02*
X166917292Y-93771980D01*
X166917292Y-93771980D02*
X166964911Y-93819600D01*
X166964911Y-93819600D02*
X167060149Y-93867219D01*
X167060149Y-93867219D02*
X167250625Y-93867219D01*
X167250625Y-93867219D02*
X167345863Y-93819600D01*
X167345863Y-93819600D02*
X167393482Y-93771980D01*
X167393482Y-93771980D02*
X167441101Y-93676742D01*
X167441101Y-93676742D02*
X167441101Y-92867219D01*
X167869673Y-93581504D02*
X168345863Y-93581504D01*
X167774435Y-93867219D02*
X168107768Y-92867219D01*
X168107768Y-92867219D02*
X168441101Y-93867219D01*
X169345863Y-93867219D02*
X169012530Y-93391028D01*
X168774435Y-93867219D02*
X168774435Y-92867219D01*
X168774435Y-92867219D02*
X169155387Y-92867219D01*
X169155387Y-92867219D02*
X169250625Y-92914838D01*
X169250625Y-92914838D02*
X169298244Y-92962457D01*
X169298244Y-92962457D02*
X169345863Y-93057695D01*
X169345863Y-93057695D02*
X169345863Y-93200552D01*
X169345863Y-93200552D02*
X169298244Y-93295790D01*
X169298244Y-93295790D02*
X169250625Y-93343409D01*
X169250625Y-93343409D02*
X169155387Y-93391028D01*
X169155387Y-93391028D02*
X168774435Y-93391028D01*
X169631578Y-92867219D02*
X170203006Y-92867219D01*
X169917292Y-93867219D02*
X169917292Y-92867219D01*
X180322054Y-94319600D02*
X180464911Y-94367219D01*
X180464911Y-94367219D02*
X180703006Y-94367219D01*
X180703006Y-94367219D02*
X180798244Y-94319600D01*
X180798244Y-94319600D02*
X180845863Y-94271980D01*
X180845863Y-94271980D02*
X180893482Y-94176742D01*
X180893482Y-94176742D02*
X180893482Y-94081504D01*
X180893482Y-94081504D02*
X180845863Y-93986266D01*
X180845863Y-93986266D02*
X180798244Y-93938647D01*
X180798244Y-93938647D02*
X180703006Y-93891028D01*
X180703006Y-93891028D02*
X180512530Y-93843409D01*
X180512530Y-93843409D02*
X180417292Y-93795790D01*
X180417292Y-93795790D02*
X180369673Y-93748171D01*
X180369673Y-93748171D02*
X180322054Y-93652933D01*
X180322054Y-93652933D02*
X180322054Y-93557695D01*
X180322054Y-93557695D02*
X180369673Y-93462457D01*
X180369673Y-93462457D02*
X180417292Y-93414838D01*
X180417292Y-93414838D02*
X180512530Y-93367219D01*
X180512530Y-93367219D02*
X180750625Y-93367219D01*
X180750625Y-93367219D02*
X180893482Y-93414838D01*
X181226816Y-93367219D02*
X181464911Y-94367219D01*
X181464911Y-94367219D02*
X181655387Y-93652933D01*
X181655387Y-93652933D02*
X181845863Y-94367219D01*
X181845863Y-94367219D02*
X182083959Y-93367219D01*
X182464911Y-94367219D02*
X182464911Y-93367219D01*
X182464911Y-93367219D02*
X182703006Y-93367219D01*
X182703006Y-93367219D02*
X182845863Y-93414838D01*
X182845863Y-93414838D02*
X182941101Y-93510076D01*
X182941101Y-93510076D02*
X182988720Y-93605314D01*
X182988720Y-93605314D02*
X183036339Y-93795790D01*
X183036339Y-93795790D02*
X183036339Y-93938647D01*
X183036339Y-93938647D02*
X182988720Y-94129123D01*
X182988720Y-94129123D02*
X182941101Y-94224361D01*
X182941101Y-94224361D02*
X182845863Y-94319600D01*
X182845863Y-94319600D02*
X182703006Y-94367219D01*
X182703006Y-94367219D02*
X182464911Y-94367219D01*
D11*
X162107200Y-100683332D02*
X162154819Y-100540475D01*
X162154819Y-100540475D02*
X162154819Y-100302380D01*
X162154819Y-100302380D02*
X162107200Y-100207142D01*
X162107200Y-100207142D02*
X162059580Y-100159523D01*
X162059580Y-100159523D02*
X161964342Y-100111904D01*
X161964342Y-100111904D02*
X161869104Y-100111904D01*
X161869104Y-100111904D02*
X161773866Y-100159523D01*
X161773866Y-100159523D02*
X161726247Y-100207142D01*
X161726247Y-100207142D02*
X161678628Y-100302380D01*
X161678628Y-100302380D02*
X161631009Y-100492856D01*
X161631009Y-100492856D02*
X161583390Y-100588094D01*
X161583390Y-100588094D02*
X161535771Y-100635713D01*
X161535771Y-100635713D02*
X161440533Y-100683332D01*
X161440533Y-100683332D02*
X161345295Y-100683332D01*
X161345295Y-100683332D02*
X161250057Y-100635713D01*
X161250057Y-100635713D02*
X161202438Y-100588094D01*
X161202438Y-100588094D02*
X161154819Y-100492856D01*
X161154819Y-100492856D02*
X161154819Y-100254761D01*
X161154819Y-100254761D02*
X161202438Y-100111904D01*
X161154819Y-99778570D02*
X162154819Y-99540475D01*
X162154819Y-99540475D02*
X161440533Y-99349999D01*
X161440533Y-99349999D02*
X162154819Y-99159523D01*
X162154819Y-99159523D02*
X161154819Y-98921428D01*
X162154819Y-98016666D02*
X162154819Y-98588094D01*
X162154819Y-98302380D02*
X161154819Y-98302380D01*
X161154819Y-98302380D02*
X161297676Y-98397618D01*
X161297676Y-98397618D02*
X161392914Y-98492856D01*
X161392914Y-98492856D02*
X161440533Y-98588094D01*
X178238095Y-112954819D02*
X178238095Y-113764342D01*
X178238095Y-113764342D02*
X178285714Y-113859580D01*
X178285714Y-113859580D02*
X178333333Y-113907200D01*
X178333333Y-113907200D02*
X178428571Y-113954819D01*
X178428571Y-113954819D02*
X178619047Y-113954819D01*
X178619047Y-113954819D02*
X178714285Y-113907200D01*
X178714285Y-113907200D02*
X178761904Y-113859580D01*
X178761904Y-113859580D02*
X178809523Y-113764342D01*
X178809523Y-113764342D02*
X178809523Y-112954819D01*
X179238095Y-113050057D02*
X179285714Y-113002438D01*
X179285714Y-113002438D02*
X179380952Y-112954819D01*
X179380952Y-112954819D02*
X179619047Y-112954819D01*
X179619047Y-112954819D02*
X179714285Y-113002438D01*
X179714285Y-113002438D02*
X179761904Y-113050057D01*
X179761904Y-113050057D02*
X179809523Y-113145295D01*
X179809523Y-113145295D02*
X179809523Y-113240533D01*
X179809523Y-113240533D02*
X179761904Y-113383390D01*
X179761904Y-113383390D02*
X179190476Y-113954819D01*
X179190476Y-113954819D02*
X179809523Y-113954819D01*
X173833333Y-115454819D02*
X173500000Y-114978628D01*
X173261905Y-115454819D02*
X173261905Y-114454819D01*
X173261905Y-114454819D02*
X173642857Y-114454819D01*
X173642857Y-114454819D02*
X173738095Y-114502438D01*
X173738095Y-114502438D02*
X173785714Y-114550057D01*
X173785714Y-114550057D02*
X173833333Y-114645295D01*
X173833333Y-114645295D02*
X173833333Y-114788152D01*
X173833333Y-114788152D02*
X173785714Y-114883390D01*
X173785714Y-114883390D02*
X173738095Y-114931009D01*
X173738095Y-114931009D02*
X173642857Y-114978628D01*
X173642857Y-114978628D02*
X173261905Y-114978628D01*
X174738095Y-114454819D02*
X174261905Y-114454819D01*
X174261905Y-114454819D02*
X174214286Y-114931009D01*
X174214286Y-114931009D02*
X174261905Y-114883390D01*
X174261905Y-114883390D02*
X174357143Y-114835771D01*
X174357143Y-114835771D02*
X174595238Y-114835771D01*
X174595238Y-114835771D02*
X174690476Y-114883390D01*
X174690476Y-114883390D02*
X174738095Y-114931009D01*
X174738095Y-114931009D02*
X174785714Y-115026247D01*
X174785714Y-115026247D02*
X174785714Y-115264342D01*
X174785714Y-115264342D02*
X174738095Y-115359580D01*
X174738095Y-115359580D02*
X174690476Y-115407200D01*
X174690476Y-115407200D02*
X174595238Y-115454819D01*
X174595238Y-115454819D02*
X174357143Y-115454819D01*
X174357143Y-115454819D02*
X174261905Y-115407200D01*
X174261905Y-115407200D02*
X174214286Y-115359580D01*
X171333333Y-115454819D02*
X171000000Y-114978628D01*
X170761905Y-115454819D02*
X170761905Y-114454819D01*
X170761905Y-114454819D02*
X171142857Y-114454819D01*
X171142857Y-114454819D02*
X171238095Y-114502438D01*
X171238095Y-114502438D02*
X171285714Y-114550057D01*
X171285714Y-114550057D02*
X171333333Y-114645295D01*
X171333333Y-114645295D02*
X171333333Y-114788152D01*
X171333333Y-114788152D02*
X171285714Y-114883390D01*
X171285714Y-114883390D02*
X171238095Y-114931009D01*
X171238095Y-114931009D02*
X171142857Y-114978628D01*
X171142857Y-114978628D02*
X170761905Y-114978628D01*
X172190476Y-114788152D02*
X172190476Y-115454819D01*
X171952381Y-114407200D02*
X171714286Y-115121485D01*
X171714286Y-115121485D02*
X172333333Y-115121485D01*
X168103333Y-113359580D02*
X168055714Y-113407200D01*
X168055714Y-113407200D02*
X167912857Y-113454819D01*
X167912857Y-113454819D02*
X167817619Y-113454819D01*
X167817619Y-113454819D02*
X167674762Y-113407200D01*
X167674762Y-113407200D02*
X167579524Y-113311961D01*
X167579524Y-113311961D02*
X167531905Y-113216723D01*
X167531905Y-113216723D02*
X167484286Y-113026247D01*
X167484286Y-113026247D02*
X167484286Y-112883390D01*
X167484286Y-112883390D02*
X167531905Y-112692914D01*
X167531905Y-112692914D02*
X167579524Y-112597676D01*
X167579524Y-112597676D02*
X167674762Y-112502438D01*
X167674762Y-112502438D02*
X167817619Y-112454819D01*
X167817619Y-112454819D02*
X167912857Y-112454819D01*
X167912857Y-112454819D02*
X168055714Y-112502438D01*
X168055714Y-112502438D02*
X168103333Y-112550057D01*
X168579524Y-113454819D02*
X168770000Y-113454819D01*
X168770000Y-113454819D02*
X168865238Y-113407200D01*
X168865238Y-113407200D02*
X168912857Y-113359580D01*
X168912857Y-113359580D02*
X169008095Y-113216723D01*
X169008095Y-113216723D02*
X169055714Y-113026247D01*
X169055714Y-113026247D02*
X169055714Y-112645295D01*
X169055714Y-112645295D02*
X169008095Y-112550057D01*
X169008095Y-112550057D02*
X168960476Y-112502438D01*
X168960476Y-112502438D02*
X168865238Y-112454819D01*
X168865238Y-112454819D02*
X168674762Y-112454819D01*
X168674762Y-112454819D02*
X168579524Y-112502438D01*
X168579524Y-112502438D02*
X168531905Y-112550057D01*
X168531905Y-112550057D02*
X168484286Y-112645295D01*
X168484286Y-112645295D02*
X168484286Y-112883390D01*
X168484286Y-112883390D02*
X168531905Y-112978628D01*
X168531905Y-112978628D02*
X168579524Y-113026247D01*
X168579524Y-113026247D02*
X168674762Y-113073866D01*
X168674762Y-113073866D02*
X168865238Y-113073866D01*
X168865238Y-113073866D02*
X168960476Y-113026247D01*
X168960476Y-113026247D02*
X169008095Y-112978628D01*
X169008095Y-112978628D02*
X169055714Y-112883390D01*
X157023809Y-106478628D02*
X157023809Y-106954819D01*
X156690476Y-105954819D02*
X157023809Y-106478628D01*
X157023809Y-106478628D02*
X157357142Y-105954819D01*
X158214285Y-106954819D02*
X157642857Y-106954819D01*
X157928571Y-106954819D02*
X157928571Y-105954819D01*
X157928571Y-105954819D02*
X157833333Y-106097676D01*
X157833333Y-106097676D02*
X157738095Y-106192914D01*
X157738095Y-106192914D02*
X157642857Y-106240533D01*
X170400595Y-98854819D02*
X170400595Y-99664342D01*
X170400595Y-99664342D02*
X170448214Y-99759580D01*
X170448214Y-99759580D02*
X170495833Y-99807200D01*
X170495833Y-99807200D02*
X170591071Y-99854819D01*
X170591071Y-99854819D02*
X170781547Y-99854819D01*
X170781547Y-99854819D02*
X170876785Y-99807200D01*
X170876785Y-99807200D02*
X170924404Y-99759580D01*
X170924404Y-99759580D02*
X170972023Y-99664342D01*
X170972023Y-99664342D02*
X170972023Y-98854819D01*
X171972023Y-99854819D02*
X171400595Y-99854819D01*
X171686309Y-99854819D02*
X171686309Y-98854819D01*
X171686309Y-98854819D02*
X171591071Y-98997676D01*
X171591071Y-98997676D02*
X171495833Y-99092914D01*
X171495833Y-99092914D02*
X171400595Y-99140533D01*
X190833333Y-108954819D02*
X190500000Y-108478628D01*
X190261905Y-108954819D02*
X190261905Y-107954819D01*
X190261905Y-107954819D02*
X190642857Y-107954819D01*
X190642857Y-107954819D02*
X190738095Y-108002438D01*
X190738095Y-108002438D02*
X190785714Y-108050057D01*
X190785714Y-108050057D02*
X190833333Y-108145295D01*
X190833333Y-108145295D02*
X190833333Y-108288152D01*
X190833333Y-108288152D02*
X190785714Y-108383390D01*
X190785714Y-108383390D02*
X190738095Y-108431009D01*
X190738095Y-108431009D02*
X190642857Y-108478628D01*
X190642857Y-108478628D02*
X190261905Y-108478628D01*
X191166667Y-107954819D02*
X191785714Y-107954819D01*
X191785714Y-107954819D02*
X191452381Y-108335771D01*
X191452381Y-108335771D02*
X191595238Y-108335771D01*
X191595238Y-108335771D02*
X191690476Y-108383390D01*
X191690476Y-108383390D02*
X191738095Y-108431009D01*
X191738095Y-108431009D02*
X191785714Y-108526247D01*
X191785714Y-108526247D02*
X191785714Y-108764342D01*
X191785714Y-108764342D02*
X191738095Y-108859580D01*
X191738095Y-108859580D02*
X191690476Y-108907200D01*
X191690476Y-108907200D02*
X191595238Y-108954819D01*
X191595238Y-108954819D02*
X191309524Y-108954819D01*
X191309524Y-108954819D02*
X191214286Y-108907200D01*
X191214286Y-108907200D02*
X191166667Y-108859580D01*
X179843333Y-101464819D02*
X179510000Y-100988628D01*
X179271905Y-101464819D02*
X179271905Y-100464819D01*
X179271905Y-100464819D02*
X179652857Y-100464819D01*
X179652857Y-100464819D02*
X179748095Y-100512438D01*
X179748095Y-100512438D02*
X179795714Y-100560057D01*
X179795714Y-100560057D02*
X179843333Y-100655295D01*
X179843333Y-100655295D02*
X179843333Y-100798152D01*
X179843333Y-100798152D02*
X179795714Y-100893390D01*
X179795714Y-100893390D02*
X179748095Y-100941009D01*
X179748095Y-100941009D02*
X179652857Y-100988628D01*
X179652857Y-100988628D02*
X179271905Y-100988628D01*
X180224286Y-100560057D02*
X180271905Y-100512438D01*
X180271905Y-100512438D02*
X180367143Y-100464819D01*
X180367143Y-100464819D02*
X180605238Y-100464819D01*
X180605238Y-100464819D02*
X180700476Y-100512438D01*
X180700476Y-100512438D02*
X180748095Y-100560057D01*
X180748095Y-100560057D02*
X180795714Y-100655295D01*
X180795714Y-100655295D02*
X180795714Y-100750533D01*
X180795714Y-100750533D02*
X180748095Y-100893390D01*
X180748095Y-100893390D02*
X180176667Y-101464819D01*
X180176667Y-101464819D02*
X180795714Y-101464819D01*
X164333333Y-98284819D02*
X164000000Y-97808628D01*
X163761905Y-98284819D02*
X163761905Y-97284819D01*
X163761905Y-97284819D02*
X164142857Y-97284819D01*
X164142857Y-97284819D02*
X164238095Y-97332438D01*
X164238095Y-97332438D02*
X164285714Y-97380057D01*
X164285714Y-97380057D02*
X164333333Y-97475295D01*
X164333333Y-97475295D02*
X164333333Y-97618152D01*
X164333333Y-97618152D02*
X164285714Y-97713390D01*
X164285714Y-97713390D02*
X164238095Y-97761009D01*
X164238095Y-97761009D02*
X164142857Y-97808628D01*
X164142857Y-97808628D02*
X163761905Y-97808628D01*
X165285714Y-98284819D02*
X164714286Y-98284819D01*
X165000000Y-98284819D02*
X165000000Y-97284819D01*
X165000000Y-97284819D02*
X164904762Y-97427676D01*
X164904762Y-97427676D02*
X164809524Y-97522914D01*
X164809524Y-97522914D02*
X164714286Y-97570533D01*
X165166666Y-112431009D02*
X164833333Y-112431009D01*
X164833333Y-112954819D02*
X164833333Y-111954819D01*
X164833333Y-111954819D02*
X165309523Y-111954819D01*
X166023809Y-112431009D02*
X166166666Y-112478628D01*
X166166666Y-112478628D02*
X166214285Y-112526247D01*
X166214285Y-112526247D02*
X166261904Y-112621485D01*
X166261904Y-112621485D02*
X166261904Y-112764342D01*
X166261904Y-112764342D02*
X166214285Y-112859580D01*
X166214285Y-112859580D02*
X166166666Y-112907200D01*
X166166666Y-112907200D02*
X166071428Y-112954819D01*
X166071428Y-112954819D02*
X165690476Y-112954819D01*
X165690476Y-112954819D02*
X165690476Y-111954819D01*
X165690476Y-111954819D02*
X166023809Y-111954819D01*
X166023809Y-111954819D02*
X166119047Y-112002438D01*
X166119047Y-112002438D02*
X166166666Y-112050057D01*
X166166666Y-112050057D02*
X166214285Y-112145295D01*
X166214285Y-112145295D02*
X166214285Y-112240533D01*
X166214285Y-112240533D02*
X166166666Y-112335771D01*
X166166666Y-112335771D02*
X166119047Y-112383390D01*
X166119047Y-112383390D02*
X166023809Y-112431009D01*
X166023809Y-112431009D02*
X165690476Y-112431009D01*
X167214285Y-112954819D02*
X166642857Y-112954819D01*
X166928571Y-112954819D02*
X166928571Y-111954819D01*
X166928571Y-111954819D02*
X166833333Y-112097676D01*
X166833333Y-112097676D02*
X166738095Y-112192914D01*
X166738095Y-112192914D02*
X166642857Y-112240533D01*
X192261905Y-114454819D02*
X192261905Y-113454819D01*
X192261905Y-113454819D02*
X192500000Y-113454819D01*
X192500000Y-113454819D02*
X192642857Y-113502438D01*
X192642857Y-113502438D02*
X192738095Y-113597676D01*
X192738095Y-113597676D02*
X192785714Y-113692914D01*
X192785714Y-113692914D02*
X192833333Y-113883390D01*
X192833333Y-113883390D02*
X192833333Y-114026247D01*
X192833333Y-114026247D02*
X192785714Y-114216723D01*
X192785714Y-114216723D02*
X192738095Y-114311961D01*
X192738095Y-114311961D02*
X192642857Y-114407200D01*
X192642857Y-114407200D02*
X192500000Y-114454819D01*
X192500000Y-114454819D02*
X192261905Y-114454819D01*
X193785714Y-114454819D02*
X193214286Y-114454819D01*
X193500000Y-114454819D02*
X193500000Y-113454819D01*
X193500000Y-113454819D02*
X193404762Y-113597676D01*
X193404762Y-113597676D02*
X193309524Y-113692914D01*
X193309524Y-113692914D02*
X193214286Y-113740533D01*
X186857142Y-116859580D02*
X186809523Y-116907200D01*
X186809523Y-116907200D02*
X186666666Y-116954819D01*
X186666666Y-116954819D02*
X186571428Y-116954819D01*
X186571428Y-116954819D02*
X186428571Y-116907200D01*
X186428571Y-116907200D02*
X186333333Y-116811961D01*
X186333333Y-116811961D02*
X186285714Y-116716723D01*
X186285714Y-116716723D02*
X186238095Y-116526247D01*
X186238095Y-116526247D02*
X186238095Y-116383390D01*
X186238095Y-116383390D02*
X186285714Y-116192914D01*
X186285714Y-116192914D02*
X186333333Y-116097676D01*
X186333333Y-116097676D02*
X186428571Y-116002438D01*
X186428571Y-116002438D02*
X186571428Y-115954819D01*
X186571428Y-115954819D02*
X186666666Y-115954819D01*
X186666666Y-115954819D02*
X186809523Y-116002438D01*
X186809523Y-116002438D02*
X186857142Y-116050057D01*
X187809523Y-116954819D02*
X187238095Y-116954819D01*
X187523809Y-116954819D02*
X187523809Y-115954819D01*
X187523809Y-115954819D02*
X187428571Y-116097676D01*
X187428571Y-116097676D02*
X187333333Y-116192914D01*
X187333333Y-116192914D02*
X187238095Y-116240533D01*
X188142857Y-115954819D02*
X188761904Y-115954819D01*
X188761904Y-115954819D02*
X188428571Y-116335771D01*
X188428571Y-116335771D02*
X188571428Y-116335771D01*
X188571428Y-116335771D02*
X188666666Y-116383390D01*
X188666666Y-116383390D02*
X188714285Y-116431009D01*
X188714285Y-116431009D02*
X188761904Y-116526247D01*
X188761904Y-116526247D02*
X188761904Y-116764342D01*
X188761904Y-116764342D02*
X188714285Y-116859580D01*
X188714285Y-116859580D02*
X188666666Y-116907200D01*
X188666666Y-116907200D02*
X188571428Y-116954819D01*
X188571428Y-116954819D02*
X188285714Y-116954819D01*
X188285714Y-116954819D02*
X188190476Y-116907200D01*
X188190476Y-116907200D02*
X188142857Y-116859580D01*
X179357142Y-107859580D02*
X179309523Y-107907200D01*
X179309523Y-107907200D02*
X179166666Y-107954819D01*
X179166666Y-107954819D02*
X179071428Y-107954819D01*
X179071428Y-107954819D02*
X178928571Y-107907200D01*
X178928571Y-107907200D02*
X178833333Y-107811961D01*
X178833333Y-107811961D02*
X178785714Y-107716723D01*
X178785714Y-107716723D02*
X178738095Y-107526247D01*
X178738095Y-107526247D02*
X178738095Y-107383390D01*
X178738095Y-107383390D02*
X178785714Y-107192914D01*
X178785714Y-107192914D02*
X178833333Y-107097676D01*
X178833333Y-107097676D02*
X178928571Y-107002438D01*
X178928571Y-107002438D02*
X179071428Y-106954819D01*
X179071428Y-106954819D02*
X179166666Y-106954819D01*
X179166666Y-106954819D02*
X179309523Y-107002438D01*
X179309523Y-107002438D02*
X179357142Y-107050057D01*
X180309523Y-107954819D02*
X179738095Y-107954819D01*
X180023809Y-107954819D02*
X180023809Y-106954819D01*
X180023809Y-106954819D02*
X179928571Y-107097676D01*
X179928571Y-107097676D02*
X179833333Y-107192914D01*
X179833333Y-107192914D02*
X179738095Y-107240533D01*
X180690476Y-107050057D02*
X180738095Y-107002438D01*
X180738095Y-107002438D02*
X180833333Y-106954819D01*
X180833333Y-106954819D02*
X181071428Y-106954819D01*
X181071428Y-106954819D02*
X181166666Y-107002438D01*
X181166666Y-107002438D02*
X181214285Y-107050057D01*
X181214285Y-107050057D02*
X181261904Y-107145295D01*
X181261904Y-107145295D02*
X181261904Y-107240533D01*
X181261904Y-107240533D02*
X181214285Y-107383390D01*
X181214285Y-107383390D02*
X180642857Y-107954819D01*
X180642857Y-107954819D02*
X181261904Y-107954819D01*
X161833333Y-112359580D02*
X161785714Y-112407200D01*
X161785714Y-112407200D02*
X161642857Y-112454819D01*
X161642857Y-112454819D02*
X161547619Y-112454819D01*
X161547619Y-112454819D02*
X161404762Y-112407200D01*
X161404762Y-112407200D02*
X161309524Y-112311961D01*
X161309524Y-112311961D02*
X161261905Y-112216723D01*
X161261905Y-112216723D02*
X161214286Y-112026247D01*
X161214286Y-112026247D02*
X161214286Y-111883390D01*
X161214286Y-111883390D02*
X161261905Y-111692914D01*
X161261905Y-111692914D02*
X161309524Y-111597676D01*
X161309524Y-111597676D02*
X161404762Y-111502438D01*
X161404762Y-111502438D02*
X161547619Y-111454819D01*
X161547619Y-111454819D02*
X161642857Y-111454819D01*
X161642857Y-111454819D02*
X161785714Y-111502438D01*
X161785714Y-111502438D02*
X161833333Y-111550057D01*
X162404762Y-111883390D02*
X162309524Y-111835771D01*
X162309524Y-111835771D02*
X162261905Y-111788152D01*
X162261905Y-111788152D02*
X162214286Y-111692914D01*
X162214286Y-111692914D02*
X162214286Y-111645295D01*
X162214286Y-111645295D02*
X162261905Y-111550057D01*
X162261905Y-111550057D02*
X162309524Y-111502438D01*
X162309524Y-111502438D02*
X162404762Y-111454819D01*
X162404762Y-111454819D02*
X162595238Y-111454819D01*
X162595238Y-111454819D02*
X162690476Y-111502438D01*
X162690476Y-111502438D02*
X162738095Y-111550057D01*
X162738095Y-111550057D02*
X162785714Y-111645295D01*
X162785714Y-111645295D02*
X162785714Y-111692914D01*
X162785714Y-111692914D02*
X162738095Y-111788152D01*
X162738095Y-111788152D02*
X162690476Y-111835771D01*
X162690476Y-111835771D02*
X162595238Y-111883390D01*
X162595238Y-111883390D02*
X162404762Y-111883390D01*
X162404762Y-111883390D02*
X162309524Y-111931009D01*
X162309524Y-111931009D02*
X162261905Y-111978628D01*
X162261905Y-111978628D02*
X162214286Y-112073866D01*
X162214286Y-112073866D02*
X162214286Y-112264342D01*
X162214286Y-112264342D02*
X162261905Y-112359580D01*
X162261905Y-112359580D02*
X162309524Y-112407200D01*
X162309524Y-112407200D02*
X162404762Y-112454819D01*
X162404762Y-112454819D02*
X162595238Y-112454819D01*
X162595238Y-112454819D02*
X162690476Y-112407200D01*
X162690476Y-112407200D02*
X162738095Y-112359580D01*
X162738095Y-112359580D02*
X162785714Y-112264342D01*
X162785714Y-112264342D02*
X162785714Y-112073866D01*
X162785714Y-112073866D02*
X162738095Y-111978628D01*
X162738095Y-111978628D02*
X162690476Y-111931009D01*
X162690476Y-111931009D02*
X162595238Y-111883390D01*
X161833333Y-110359580D02*
X161785714Y-110407200D01*
X161785714Y-110407200D02*
X161642857Y-110454819D01*
X161642857Y-110454819D02*
X161547619Y-110454819D01*
X161547619Y-110454819D02*
X161404762Y-110407200D01*
X161404762Y-110407200D02*
X161309524Y-110311961D01*
X161309524Y-110311961D02*
X161261905Y-110216723D01*
X161261905Y-110216723D02*
X161214286Y-110026247D01*
X161214286Y-110026247D02*
X161214286Y-109883390D01*
X161214286Y-109883390D02*
X161261905Y-109692914D01*
X161261905Y-109692914D02*
X161309524Y-109597676D01*
X161309524Y-109597676D02*
X161404762Y-109502438D01*
X161404762Y-109502438D02*
X161547619Y-109454819D01*
X161547619Y-109454819D02*
X161642857Y-109454819D01*
X161642857Y-109454819D02*
X161785714Y-109502438D01*
X161785714Y-109502438D02*
X161833333Y-109550057D01*
X162166667Y-109454819D02*
X162833333Y-109454819D01*
X162833333Y-109454819D02*
X162404762Y-110454819D01*
X163333333Y-108359580D02*
X163285714Y-108407200D01*
X163285714Y-108407200D02*
X163142857Y-108454819D01*
X163142857Y-108454819D02*
X163047619Y-108454819D01*
X163047619Y-108454819D02*
X162904762Y-108407200D01*
X162904762Y-108407200D02*
X162809524Y-108311961D01*
X162809524Y-108311961D02*
X162761905Y-108216723D01*
X162761905Y-108216723D02*
X162714286Y-108026247D01*
X162714286Y-108026247D02*
X162714286Y-107883390D01*
X162714286Y-107883390D02*
X162761905Y-107692914D01*
X162761905Y-107692914D02*
X162809524Y-107597676D01*
X162809524Y-107597676D02*
X162904762Y-107502438D01*
X162904762Y-107502438D02*
X163047619Y-107454819D01*
X163047619Y-107454819D02*
X163142857Y-107454819D01*
X163142857Y-107454819D02*
X163285714Y-107502438D01*
X163285714Y-107502438D02*
X163333333Y-107550057D01*
X164190476Y-107454819D02*
X164000000Y-107454819D01*
X164000000Y-107454819D02*
X163904762Y-107502438D01*
X163904762Y-107502438D02*
X163857143Y-107550057D01*
X163857143Y-107550057D02*
X163761905Y-107692914D01*
X163761905Y-107692914D02*
X163714286Y-107883390D01*
X163714286Y-107883390D02*
X163714286Y-108264342D01*
X163714286Y-108264342D02*
X163761905Y-108359580D01*
X163761905Y-108359580D02*
X163809524Y-108407200D01*
X163809524Y-108407200D02*
X163904762Y-108454819D01*
X163904762Y-108454819D02*
X164095238Y-108454819D01*
X164095238Y-108454819D02*
X164190476Y-108407200D01*
X164190476Y-108407200D02*
X164238095Y-108359580D01*
X164238095Y-108359580D02*
X164285714Y-108264342D01*
X164285714Y-108264342D02*
X164285714Y-108026247D01*
X164285714Y-108026247D02*
X164238095Y-107931009D01*
X164238095Y-107931009D02*
X164190476Y-107883390D01*
X164190476Y-107883390D02*
X164095238Y-107835771D01*
X164095238Y-107835771D02*
X163904762Y-107835771D01*
X163904762Y-107835771D02*
X163809524Y-107883390D01*
X163809524Y-107883390D02*
X163761905Y-107931009D01*
X163761905Y-107931009D02*
X163714286Y-108026247D01*
X170833333Y-97859580D02*
X170785714Y-97907200D01*
X170785714Y-97907200D02*
X170642857Y-97954819D01*
X170642857Y-97954819D02*
X170547619Y-97954819D01*
X170547619Y-97954819D02*
X170404762Y-97907200D01*
X170404762Y-97907200D02*
X170309524Y-97811961D01*
X170309524Y-97811961D02*
X170261905Y-97716723D01*
X170261905Y-97716723D02*
X170214286Y-97526247D01*
X170214286Y-97526247D02*
X170214286Y-97383390D01*
X170214286Y-97383390D02*
X170261905Y-97192914D01*
X170261905Y-97192914D02*
X170309524Y-97097676D01*
X170309524Y-97097676D02*
X170404762Y-97002438D01*
X170404762Y-97002438D02*
X170547619Y-96954819D01*
X170547619Y-96954819D02*
X170642857Y-96954819D01*
X170642857Y-96954819D02*
X170785714Y-97002438D01*
X170785714Y-97002438D02*
X170833333Y-97050057D01*
X171738095Y-96954819D02*
X171261905Y-96954819D01*
X171261905Y-96954819D02*
X171214286Y-97431009D01*
X171214286Y-97431009D02*
X171261905Y-97383390D01*
X171261905Y-97383390D02*
X171357143Y-97335771D01*
X171357143Y-97335771D02*
X171595238Y-97335771D01*
X171595238Y-97335771D02*
X171690476Y-97383390D01*
X171690476Y-97383390D02*
X171738095Y-97431009D01*
X171738095Y-97431009D02*
X171785714Y-97526247D01*
X171785714Y-97526247D02*
X171785714Y-97764342D01*
X171785714Y-97764342D02*
X171738095Y-97859580D01*
X171738095Y-97859580D02*
X171690476Y-97907200D01*
X171690476Y-97907200D02*
X171595238Y-97954819D01*
X171595238Y-97954819D02*
X171357143Y-97954819D01*
X171357143Y-97954819D02*
X171261905Y-97907200D01*
X171261905Y-97907200D02*
X171214286Y-97859580D01*
X164199580Y-102166666D02*
X164247200Y-102214285D01*
X164247200Y-102214285D02*
X164294819Y-102357142D01*
X164294819Y-102357142D02*
X164294819Y-102452380D01*
X164294819Y-102452380D02*
X164247200Y-102595237D01*
X164247200Y-102595237D02*
X164151961Y-102690475D01*
X164151961Y-102690475D02*
X164056723Y-102738094D01*
X164056723Y-102738094D02*
X163866247Y-102785713D01*
X163866247Y-102785713D02*
X163723390Y-102785713D01*
X163723390Y-102785713D02*
X163532914Y-102738094D01*
X163532914Y-102738094D02*
X163437676Y-102690475D01*
X163437676Y-102690475D02*
X163342438Y-102595237D01*
X163342438Y-102595237D02*
X163294819Y-102452380D01*
X163294819Y-102452380D02*
X163294819Y-102357142D01*
X163294819Y-102357142D02*
X163342438Y-102214285D01*
X163342438Y-102214285D02*
X163390057Y-102166666D01*
X163628152Y-101309523D02*
X164294819Y-101309523D01*
X163247200Y-101547618D02*
X163961485Y-101785713D01*
X163961485Y-101785713D02*
X163961485Y-101166666D01*
X177859580Y-100666666D02*
X177907200Y-100714285D01*
X177907200Y-100714285D02*
X177954819Y-100857142D01*
X177954819Y-100857142D02*
X177954819Y-100952380D01*
X177954819Y-100952380D02*
X177907200Y-101095237D01*
X177907200Y-101095237D02*
X177811961Y-101190475D01*
X177811961Y-101190475D02*
X177716723Y-101238094D01*
X177716723Y-101238094D02*
X177526247Y-101285713D01*
X177526247Y-101285713D02*
X177383390Y-101285713D01*
X177383390Y-101285713D02*
X177192914Y-101238094D01*
X177192914Y-101238094D02*
X177097676Y-101190475D01*
X177097676Y-101190475D02*
X177002438Y-101095237D01*
X177002438Y-101095237D02*
X176954819Y-100952380D01*
X176954819Y-100952380D02*
X176954819Y-100857142D01*
X176954819Y-100857142D02*
X177002438Y-100714285D01*
X177002438Y-100714285D02*
X177050057Y-100666666D01*
X176954819Y-100333332D02*
X176954819Y-99714285D01*
X176954819Y-99714285D02*
X177335771Y-100047618D01*
X177335771Y-100047618D02*
X177335771Y-99904761D01*
X177335771Y-99904761D02*
X177383390Y-99809523D01*
X177383390Y-99809523D02*
X177431009Y-99761904D01*
X177431009Y-99761904D02*
X177526247Y-99714285D01*
X177526247Y-99714285D02*
X177764342Y-99714285D01*
X177764342Y-99714285D02*
X177859580Y-99761904D01*
X177859580Y-99761904D02*
X177907200Y-99809523D01*
X177907200Y-99809523D02*
X177954819Y-99904761D01*
X177954819Y-99904761D02*
X177954819Y-100190475D01*
X177954819Y-100190475D02*
X177907200Y-100285713D01*
X177907200Y-100285713D02*
X177859580Y-100333332D01*
X171813333Y-111859580D02*
X171765714Y-111907200D01*
X171765714Y-111907200D02*
X171622857Y-111954819D01*
X171622857Y-111954819D02*
X171527619Y-111954819D01*
X171527619Y-111954819D02*
X171384762Y-111907200D01*
X171384762Y-111907200D02*
X171289524Y-111811961D01*
X171289524Y-111811961D02*
X171241905Y-111716723D01*
X171241905Y-111716723D02*
X171194286Y-111526247D01*
X171194286Y-111526247D02*
X171194286Y-111383390D01*
X171194286Y-111383390D02*
X171241905Y-111192914D01*
X171241905Y-111192914D02*
X171289524Y-111097676D01*
X171289524Y-111097676D02*
X171384762Y-111002438D01*
X171384762Y-111002438D02*
X171527619Y-110954819D01*
X171527619Y-110954819D02*
X171622857Y-110954819D01*
X171622857Y-110954819D02*
X171765714Y-111002438D01*
X171765714Y-111002438D02*
X171813333Y-111050057D01*
X172194286Y-111050057D02*
X172241905Y-111002438D01*
X172241905Y-111002438D02*
X172337143Y-110954819D01*
X172337143Y-110954819D02*
X172575238Y-110954819D01*
X172575238Y-110954819D02*
X172670476Y-111002438D01*
X172670476Y-111002438D02*
X172718095Y-111050057D01*
X172718095Y-111050057D02*
X172765714Y-111145295D01*
X172765714Y-111145295D02*
X172765714Y-111240533D01*
X172765714Y-111240533D02*
X172718095Y-111383390D01*
X172718095Y-111383390D02*
X172146667Y-111954819D01*
X172146667Y-111954819D02*
X172765714Y-111954819D01*
X166813333Y-99359580D02*
X166765714Y-99407200D01*
X166765714Y-99407200D02*
X166622857Y-99454819D01*
X166622857Y-99454819D02*
X166527619Y-99454819D01*
X166527619Y-99454819D02*
X166384762Y-99407200D01*
X166384762Y-99407200D02*
X166289524Y-99311961D01*
X166289524Y-99311961D02*
X166241905Y-99216723D01*
X166241905Y-99216723D02*
X166194286Y-99026247D01*
X166194286Y-99026247D02*
X166194286Y-98883390D01*
X166194286Y-98883390D02*
X166241905Y-98692914D01*
X166241905Y-98692914D02*
X166289524Y-98597676D01*
X166289524Y-98597676D02*
X166384762Y-98502438D01*
X166384762Y-98502438D02*
X166527619Y-98454819D01*
X166527619Y-98454819D02*
X166622857Y-98454819D01*
X166622857Y-98454819D02*
X166765714Y-98502438D01*
X166765714Y-98502438D02*
X166813333Y-98550057D01*
X167765714Y-99454819D02*
X167194286Y-99454819D01*
X167480000Y-99454819D02*
X167480000Y-98454819D01*
X167480000Y-98454819D02*
X167384762Y-98597676D01*
X167384762Y-98597676D02*
X167289524Y-98692914D01*
X167289524Y-98692914D02*
X167194286Y-98740533D01*
%TO.C,J1*%
D12*
X189595000Y-105155000D02*
X190995000Y-105155000D01*
X193395000Y-105155000D02*
X193545000Y-105155000D01*
X193545000Y-105155000D02*
X193545000Y-104855000D01*
X187420000Y-102805000D02*
X187845000Y-102805000D01*
X187845000Y-102805000D02*
X187845000Y-103805000D01*
X187420000Y-102080000D02*
X187420000Y-102805000D01*
X187845000Y-99205000D02*
X187845000Y-98205000D01*
X193545000Y-97155000D02*
X193545000Y-96855000D01*
X190995000Y-96855000D02*
X189595000Y-96855000D01*
X193545000Y-96855000D02*
X193395000Y-96855000D01*
%TO.C,SW1*%
X158570000Y-95900000D02*
X157780000Y-95900000D01*
X156770000Y-96500000D02*
X156770000Y-102200000D01*
X159620000Y-97750000D02*
X159620000Y-99450000D01*
X159620000Y-100750000D02*
X159620000Y-100950000D01*
X157780000Y-102800000D02*
X158570000Y-102800000D01*
%TO.C,U2*%
X186810000Y-110520000D02*
X187140000Y-110280000D01*
X187140000Y-110760000D01*
X186810000Y-110520000D01*
G36*
X187140000Y-110760000D02*
G01*
X186810000Y-110520000D01*
X187140000Y-110280000D01*
X187140000Y-110760000D01*
G37*
X180090000Y-115560000D02*
X181350000Y-115560000D01*
X186910000Y-115560000D02*
X185650000Y-115560000D01*
X180090000Y-111800000D02*
X180090000Y-115560000D01*
X186910000Y-111800000D02*
X186910000Y-115560000D01*
%TO.C,J4*%
X169270000Y-118120000D02*
X177000000Y-118120000D01*
X177000000Y-120880000D02*
X177000000Y-118120000D01*
X169270000Y-120880000D02*
X169270000Y-118120000D01*
X169270000Y-120880000D02*
X177000000Y-120880000D01*
X168000000Y-120880000D02*
X166620000Y-120880000D01*
X166620000Y-120880000D02*
X166620000Y-119500000D01*
%TO.C,R5*%
X173616359Y-113880000D02*
X173923641Y-113880000D01*
X173616359Y-113120000D02*
X173923641Y-113120000D01*
%TO.C,R4*%
X171116359Y-113880000D02*
X171423641Y-113880000D01*
X171116359Y-113120000D02*
X171423641Y-113120000D01*
%TO.C,C9*%
X168162164Y-111860000D02*
X168377836Y-111860000D01*
X168162164Y-111140000D02*
X168377836Y-111140000D01*
%TO.C,Y1*%
X162460000Y-107860000D02*
X162460000Y-104440000D01*
X162460000Y-104440000D02*
X158340000Y-104440000D01*
%TO.C,U1*%
X166912500Y-102090000D02*
X166572500Y-101620000D01*
X167252500Y-101620000D01*
X166912500Y-102090000D01*
G36*
X166912500Y-102090000D02*
G01*
X166572500Y-101620000D01*
X167252500Y-101620000D01*
X166912500Y-102090000D01*
G37*
X174772500Y-108860000D02*
X174322500Y-108860000D01*
X174772500Y-108410000D02*
X174772500Y-108860000D01*
X174772500Y-101640000D02*
X174772500Y-102090000D01*
X174322500Y-101640000D02*
X174772500Y-101640000D01*
X168002500Y-108860000D02*
X167552500Y-108860000D01*
X167552500Y-108860000D02*
X167552500Y-108410000D01*
X167552500Y-102090000D02*
X167552500Y-101640000D01*
X167552500Y-101640000D02*
X168002500Y-101640000D01*
%TO.C,R3*%
X191153641Y-110380000D02*
X190846359Y-110380000D01*
X191153641Y-109620000D02*
X190846359Y-109620000D01*
%TO.C,R2*%
X180380000Y-102356359D02*
X180380000Y-102663641D01*
X179620000Y-102356359D02*
X179620000Y-102663641D01*
%TO.C,R1*%
X164846359Y-98620000D02*
X165153641Y-98620000D01*
X164846359Y-99380000D02*
X165153641Y-99380000D01*
%TO.C,J3*%
X174690000Y-89620000D02*
X174690000Y-91000000D01*
X173310000Y-89620000D02*
X174690000Y-89620000D01*
X172040000Y-89620000D02*
X164310000Y-89620000D01*
X172040000Y-89620000D02*
X172040000Y-92380000D01*
X164310000Y-89620000D02*
X164310000Y-92380000D01*
X172040000Y-92380000D02*
X164310000Y-92380000D01*
%TO.C,J2*%
X187690000Y-89620000D02*
X187690000Y-91000000D01*
X186310000Y-89620000D02*
X187690000Y-89620000D01*
X185040000Y-89620000D02*
X177310000Y-89620000D01*
X185040000Y-89620000D02*
X185040000Y-92380000D01*
X177310000Y-89620000D02*
X177310000Y-92380000D01*
X185040000Y-92380000D02*
X177310000Y-92380000D01*
%TO.C,FB1*%
X165490000Y-110162779D02*
X165490000Y-109837221D01*
X166510000Y-110162779D02*
X166510000Y-109837221D01*
%TO.C,D1*%
X191735000Y-112015000D02*
X190265000Y-112015000D01*
X190265000Y-112015000D02*
X190265000Y-114300000D01*
X191735000Y-114300000D02*
X191735000Y-112015000D01*
%TO.C,C13*%
X187765000Y-113911252D02*
X187765000Y-113388748D01*
X189235000Y-113911252D02*
X189235000Y-113388748D01*
%TO.C,C12*%
X182738748Y-106765000D02*
X183261252Y-106765000D01*
X182738748Y-108235000D02*
X183261252Y-108235000D01*
%TO.C,C11*%
X163140000Y-106107836D02*
X163140000Y-105892164D01*
X163860000Y-106107836D02*
X163860000Y-105892164D01*
%TO.C,C10*%
X163140000Y-104107836D02*
X163140000Y-103892164D01*
X163860000Y-104107836D02*
X163860000Y-103892164D01*
%TO.C,C8*%
X164107836Y-110860000D02*
X163892164Y-110860000D01*
X164107836Y-110140000D02*
X163892164Y-110140000D01*
%TO.C,C7*%
X164107836Y-109360000D02*
X163892164Y-109360000D01*
X164107836Y-108640000D02*
X163892164Y-108640000D01*
%TO.C,C6*%
X164640000Y-107107836D02*
X164640000Y-106892164D01*
X165360000Y-107107836D02*
X165360000Y-106892164D01*
%TO.C,C5*%
X168359420Y-96490000D02*
X168640580Y-96490000D01*
X168359420Y-97510000D02*
X168640580Y-97510000D01*
%TO.C,C4*%
X164640000Y-102107836D02*
X164640000Y-101892164D01*
X165360000Y-102107836D02*
X165360000Y-101892164D01*
%TO.C,C3*%
X177860000Y-102392164D02*
X177860000Y-102607836D01*
X177140000Y-102392164D02*
X177140000Y-102607836D01*
%TO.C,C2*%
X174107836Y-111860000D02*
X173892164Y-111860000D01*
X174107836Y-111140000D02*
X173892164Y-111140000D01*
%TO.C,C1*%
X168392164Y-98640000D02*
X168607836Y-98640000D01*
X168392164Y-99360000D02*
X168607836Y-99360000D01*
%TD*%
M02*
