%TF.GenerationSoftware,KiCad,Pcbnew,10.0.6*%
%TF.CreationDate,2026-09-10T23:48:29+05:30*%
%TF.ProjectId,STM32_schm,53544d33-325f-4736-9368-6d2e6b696361,rev?*%
%TF.SameCoordinates,Original*%
%TF.FileFunction,Soldermask,Top*%
%TF.FilePolarity,Negative*%
%FSLAX46Y46*%
G04 Gerber Fmt 4.6, Leading zero omitted, Abs format (unit mm)*
G04 Created by KiCad (PCBNEW 10.0.6) date 2026-09-10 23:48:29*
%MOMM*%
%LPD*%
G01*
G04 APERTURE LIST*
G04 Aperture macros list*
%AMRoundRect*
0 Rectangle with rounded corners*
0 $1 Rounding radius*
0 $2 $3 $4 $5 $6 $7 $8 $9 X,Y pos of 4 corners*
0 Add a 4 corners polygon primitive as box body*
4,1,4,$2,$3,$4,$5,$6,$7,$8,$9,$2,$3,0*
0 Add four circle primitives for the rounded corners*
1,1,$1+$1,$2,$3*
1,1,$1+$1,$4,$5*
1,1,$1+$1,$6,$7*
1,1,$1+$1,$8,$9*
0 Add four rect primitives between the rounded corners*
20,1,$1+$1,$2,$3,$4,$5,0*
20,1,$1+$1,$4,$5,$6,$7,0*
20,1,$1+$1,$6,$7,$8,$9,0*
20,1,$1+$1,$8,$9,$2,$3,0*%
G04 Aperture macros list end*
%ADD10O,0.800000X0.800000*%
%ADD11RoundRect,0.112500X0.537500X-0.112500X0.537500X0.112500X-0.537500X0.112500X-0.537500X-0.112500X0*%
%ADD12O,1.800000X1.150000*%
%ADD13O,2.000000X1.450000*%
%ADD14R,0.800000X1.000000*%
%ADD15C,0.900000*%
%ADD16R,1.500000X0.700000*%
%ADD17RoundRect,0.375000X-0.375000X0.625000X-0.375000X-0.625000X0.375000X-0.625000X0.375000X0.625000X0*%
%ADD18RoundRect,0.500000X-1.400000X0.500000X-1.400000X-0.500000X1.400000X-0.500000X1.400000X0.500000X0*%
%ADD19C,1.700000*%
%ADD20R,1.700000X1.700000*%
%ADD21RoundRect,0.135000X-0.135000X-0.185000X0.135000X-0.185000X0.135000X0.185000X-0.135000X0.185000X0*%
%ADD22RoundRect,0.140000X-0.140000X-0.170000X0.140000X-0.170000X0.140000X0.170000X-0.140000X0.170000X0*%
%ADD23C,2.100000*%
%ADD24RoundRect,0.250000X0.450000X0.350000X-0.450000X0.350000X-0.450000X-0.350000X0.450000X-0.350000X0*%
%ADD25RoundRect,0.075000X-0.075000X-0.662500X0.075000X-0.662500X0.075000X0.662500X-0.075000X0.662500X0*%
%ADD26RoundRect,0.075000X-0.662500X-0.075000X0.662500X-0.075000X0.662500X0.075000X-0.662500X0.075000X0*%
%ADD27RoundRect,0.135000X0.135000X0.185000X-0.135000X0.185000X-0.135000X-0.185000X0.135000X-0.185000X0*%
%ADD28RoundRect,0.135000X-0.185000X0.135000X-0.185000X-0.135000X0.185000X-0.135000X0.185000X0.135000X0*%
%ADD29RoundRect,0.218750X0.256250X-0.218750X0.256250X0.218750X-0.256250X0.218750X-0.256250X-0.218750X0*%
%ADD30RoundRect,0.218750X-0.256250X0.218750X-0.256250X-0.218750X0.256250X-0.218750X0.256250X0.218750X0*%
%ADD31RoundRect,0.250000X0.475000X-0.250000X0.475000X0.250000X-0.475000X0.250000X-0.475000X-0.250000X0*%
%ADD32RoundRect,0.250000X-0.250000X-0.475000X0.250000X-0.475000X0.250000X0.475000X-0.250000X0.475000X0*%
%ADD33RoundRect,0.140000X0.170000X-0.140000X0.170000X0.140000X-0.170000X0.140000X-0.170000X-0.140000X0*%
%ADD34RoundRect,0.140000X0.140000X0.170000X-0.140000X0.170000X-0.140000X-0.170000X0.140000X-0.170000X0*%
%ADD35RoundRect,0.225000X-0.225000X-0.250000X0.225000X-0.250000X0.225000X0.250000X-0.225000X0.250000X0*%
%ADD36RoundRect,0.140000X-0.170000X0.140000X-0.170000X-0.140000X0.170000X-0.140000X0.170000X0.140000X0*%
G04 APERTURE END LIST*
D10*
%TO.C,J1*%
X189445000Y-103505000D03*
X189445000Y-98505000D03*
D11*
X188345000Y-102305000D03*
X188345000Y-101655000D03*
X188345000Y-101005000D03*
X188345000Y-100355000D03*
X188345000Y-99705000D03*
D12*
X192195000Y-104880000D03*
D13*
X188395000Y-104730000D03*
X188395000Y-97280000D03*
D12*
X192195000Y-97130000D03*
%TD*%
D14*
%TO.C,SW1*%
X159280000Y-95700000D03*
X157070000Y-95700000D03*
D15*
X158170000Y-97850000D03*
X158170000Y-100850000D03*
D14*
X159280000Y-103000000D03*
X157070000Y-103000000D03*
D16*
X159930000Y-97100000D03*
X159930000Y-100100000D03*
X159930000Y-101600000D03*
%TD*%
D17*
%TO.C,U2*%
X181200000Y-110500000D03*
D18*
X183500000Y-116800000D03*
D17*
X183500000Y-110500000D03*
X185800000Y-110500000D03*
%TD*%
D19*
%TO.C,J4*%
X175620000Y-119500000D03*
X173080000Y-119500000D03*
X170540000Y-119500000D03*
D20*
X168000000Y-119500000D03*
%TD*%
D21*
%TO.C,R5*%
X174280000Y-113500000D03*
X173260000Y-113500000D03*
%TD*%
%TO.C,R4*%
X171780000Y-113500000D03*
X170760000Y-113500000D03*
%TD*%
D22*
%TO.C,C9*%
X168750000Y-111500000D03*
X167790000Y-111500000D03*
%TD*%
D23*
%TO.C,H4*%
X191000000Y-119000000D03*
%TD*%
%TO.C,H3*%
X159000000Y-119000000D03*
%TD*%
%TO.C,H2*%
X191000000Y-91500000D03*
%TD*%
%TO.C,H1*%
X159000000Y-91500000D03*
%TD*%
D24*
%TO.C,Y1*%
X161500000Y-105300000D03*
X159300000Y-105300000D03*
X159300000Y-107000000D03*
X161500000Y-107000000D03*
%TD*%
D25*
%TO.C,U1*%
X168412500Y-101087500D03*
X168912500Y-101087500D03*
X169412500Y-101087500D03*
X169912500Y-101087500D03*
X170412500Y-101087500D03*
X170912500Y-101087500D03*
X171412500Y-101087500D03*
X171912500Y-101087500D03*
X172412500Y-101087500D03*
X172912500Y-101087500D03*
X173412500Y-101087500D03*
X173912500Y-101087500D03*
D26*
X175325000Y-102500000D03*
X175325000Y-103000000D03*
X175325000Y-103500000D03*
X175325000Y-104000000D03*
X175325000Y-104500000D03*
X175325000Y-105000000D03*
X175325000Y-105500000D03*
X175325000Y-106000000D03*
X175325000Y-106500000D03*
X175325000Y-107000000D03*
X175325000Y-107500000D03*
X175325000Y-108000000D03*
D25*
X173912500Y-109412500D03*
X173412500Y-109412500D03*
X172912500Y-109412500D03*
X172412500Y-109412500D03*
X171912500Y-109412500D03*
X171412500Y-109412500D03*
X170912500Y-109412500D03*
X170412500Y-109412500D03*
X169912500Y-109412500D03*
X169412500Y-109412500D03*
X168912500Y-109412500D03*
X168412500Y-109412500D03*
D26*
X167000000Y-108000000D03*
X167000000Y-107500000D03*
X167000000Y-107000000D03*
X167000000Y-106500000D03*
X167000000Y-106000000D03*
X167000000Y-105500000D03*
X167000000Y-105000000D03*
X167000000Y-104500000D03*
X167000000Y-104000000D03*
X167000000Y-103500000D03*
X167000000Y-103000000D03*
X167000000Y-102500000D03*
%TD*%
D27*
%TO.C,R3*%
X191510000Y-110000000D03*
X190490000Y-110000000D03*
%TD*%
D28*
%TO.C,R2*%
X180000000Y-102000000D03*
X180000000Y-103020000D03*
%TD*%
D21*
%TO.C,R1*%
X164490000Y-99000000D03*
X165510000Y-99000000D03*
%TD*%
D20*
%TO.C,J3*%
X173310000Y-91000000D03*
D19*
X170770000Y-91000000D03*
X168230000Y-91000000D03*
X165690000Y-91000000D03*
%TD*%
D20*
%TO.C,J2*%
X186310000Y-91000000D03*
D19*
X183770000Y-91000000D03*
X181230000Y-91000000D03*
X178690000Y-91000000D03*
%TD*%
D29*
%TO.C,FB1*%
X166000000Y-110787500D03*
X166000000Y-109212500D03*
%TD*%
D30*
%TO.C,D1*%
X191000000Y-112712500D03*
X191000000Y-114287500D03*
%TD*%
D31*
%TO.C,C13*%
X188500000Y-114600000D03*
X188500000Y-112700000D03*
%TD*%
D32*
%TO.C,C12*%
X182050000Y-107500000D03*
X183950000Y-107500000D03*
%TD*%
D33*
%TO.C,C11*%
X163500000Y-106480000D03*
X163500000Y-105520000D03*
%TD*%
%TO.C,C10*%
X163500000Y-104480000D03*
X163500000Y-103520000D03*
%TD*%
D34*
%TO.C,C8*%
X164480000Y-110500000D03*
X163520000Y-110500000D03*
%TD*%
%TO.C,C7*%
X164480000Y-109000000D03*
X163520000Y-109000000D03*
%TD*%
D33*
%TO.C,C6*%
X165000000Y-107480000D03*
X165000000Y-106520000D03*
%TD*%
D35*
%TO.C,C5*%
X167725000Y-97000000D03*
X169275000Y-97000000D03*
%TD*%
D33*
%TO.C,C4*%
X165000000Y-102480000D03*
X165000000Y-101520000D03*
%TD*%
D36*
%TO.C,C3*%
X177500000Y-102020000D03*
X177500000Y-102980000D03*
%TD*%
D34*
%TO.C,C2*%
X174480000Y-111500000D03*
X173520000Y-111500000D03*
%TD*%
D22*
%TO.C,C1*%
X168020000Y-99000000D03*
X168980000Y-99000000D03*
%TD*%
M02*
