M48
; DRILL file KiCad 10.0.6 date 2026-09-10T23:49:14
; FORMAT={-:-/ absolute / metric / decimal}
; #@! TF.CreationDate,2026-09-10T23:49:14+05:30
; #@! TF.GenerationSoftware,Kicad,Pcbnew,10.0.6
; #@! TF.FileFunction,Plated,1,2,PTH
FMAT,2
METRIC
; #@! TA.AperFunction,Plated,PTH,ViaDrill
T1C0.300
; #@! TA.AperFunction,Plated,PTH,ComponentDrill
T2C0.550
; #@! TA.AperFunction,Plated,PTH,ComponentDrill
T3C0.850
; #@! TA.AperFunction,Plated,PTH,ComponentDrill
T4C1.000
%
G90
G05
T1
X161.5Y-97.0
X162.5Y-109.0
X163.0Y-91.0
X163.5Y-111.5
X164.12Y-105.18
X164.5Y-103.5
X165.0Y-100.5
X168.5Y-106.0
X169.0Y-96.0
X169.5Y-111.5
X170.0Y-115.0
X171.5Y-115.0
X172.395Y-112.605
X173.5Y-108.0
X174.026Y-112.256
X175.5Y-117.5
X176.5Y-91.0
X178.5Y-103.0
X185.5Y-107.0
X185.5Y-108.0
X186.5Y-99.5
X186.5Y-112.5
X188.5Y-111.5
X189.5Y-110.0
T4
X165.69Y-91.0
X168.0Y-119.5
X168.23Y-91.0
X170.54Y-119.5
X170.77Y-91.0
X173.08Y-119.5
X173.31Y-91.0
X175.62Y-119.5
X178.69Y-91.0
X181.23Y-91.0
X183.77Y-91.0
X186.31Y-91.0
T2
G00X191.87Y-97.13
M15
G01X192.52Y-97.13
M16
G05
G00X191.87Y-104.88
M15
G01X192.52Y-104.88
M16
G05
T3
G00X188.12Y-97.28
M15
G01X188.67Y-97.28
M16
G05
G00X188.12Y-104.73
M15
G01X188.67Y-104.73
M16
G05
M30
